<?xml version="1.0" encoding="UTF-8"?><svg xmlns="http://www.w3.org/2000/svg" viewBox="0 0 792.22 355"><g id="a"/><g id="b"><g id="c"><g><path d="M129.38,163.58c.88,2.06,1.12,4.24,1.05,6.26,.01,2.28-.24,4.31-1.04,6.27-.83,2.05-2.39,3.04-4.5,3.06-1.98,.02-3.51-.97-4.3-2.8-1.82-4.22-1.89-8.52-.26-12.83,.79-2.08,2.43-2.93,4.55-3,2.2-.06,3.67,1.08,4.5,3.04Z"/><path d="M190.37,109.22c0-.65,.01-1.3,0-1.94-.07-2.53-.17-2.62-2.63-2.7-.52-.01-1.04-.01-1.55-.01-9.59,0-19.17,0-28.75,.01-.65,0-1.3-.02-1.94,.01-1.72,.08-2.07,.38-2.09,2.06-.05,3.76,0,7.51-.04,11.26-.01,1.13,.24,2.29-.48,3.83-.68-.81-1.09-1.3-1.48-1.81-5.05-6.72-11.66-11.36-19.52-14.14-8.56-3.04-17.34-3.9-26.39-2.64-11.8,1.64-21.98,6.47-30.56,14.74-8.23,7.95-13.48,17.64-16.48,28.58-2.82,10.34-3.69,20.84-2.63,31.54,.67,6.74,1.92,13.31,4.17,19.69,3.79,10.73,9.8,19.97,18.67,27.18,10.35,8.43,22.29,12.37,35.61,12.06,15.19-.35,27.98-5.77,37.46-18.03,.34-.44,.62-1.19,1.72-.62-.09,7.37-.11,14.88-.33,22.37-.1,3.25-1.01,6.37-2.23,9.41-2.97,7.41-8.43,11.96-16.11,13.83-6.14,1.5-12.31,1.37-18.43-.28-7.42-2.01-13.11-6.05-15.96-13.46-.05-.12-.09-.24-.13-.36-.23-.68-.7-1.06-1.42-1.09-.65-.03-1.29-.04-1.94-.04-11.01-.01-22.02-.01-33.02,0-.78,0-1.56,0-2.33,.08-.58,.07-.91,.5-.92,1.07-.01,.65,.03,1.3,.13,1.93,1.82,10.73,6.15,20.25,13.69,28.21,7.52,7.91,16.77,12.88,27.11,15.97,7.23,2.17,14.65,3.12,22.19,3.46,9.11,.4,18.12-.26,26.9-2.77,18.54-5.27,31.45-16.82,38.36-34.93,.94-2.46,1.38-4.92,1.38-7.56-.04-48.3-.03-96.6-.03-144.91Zm-37.04,60.34c.05,3.52-.13,6.73-.9,9.91-1.35,5.53-3.92,10.42-7.8,14.54-4.55,4.82-10.35,7.35-16.85,7.91-10.48,.93-18.99-2.96-25.37-11.34-3.37-4.43-5.13-9.59-5.79-15.05-.73-6.07-.55-12.15,1.44-18.04,2.59-7.71,7.33-13.58,14.7-17.21,13.16-6.49,30.98-1.81,37.85,14.4,2.04,4.82,2.91,9.9,2.72,14.88Z"/><path d="M294.48,104.59c.24,1.82-.49,3.2-1.6,4.58-6.98,8.69-11.86,18.48-15.11,29.11-.63,2.11-1.17,4.25-1.7,6.38-.21,.87-.68,1.31-1.56,1.44-1.03,.16-2.03,.42-3.04,.64-9.87,2.17-15.35,8.49-17.25,18.21-.68,3.45-.82,6.93-.82,10.44,.01,18.26,.02,36.52,0,54.77-.01,5.84,.72,5.06-5.22,5.08-10.36,.04-20.72,.01-31.08,.01-3.9,0-3.88,.18-3.88-3.76,.02-23.83,.01-47.66,.01-71.49v-50.11c0-1.04-.02-2.07,.02-3.1,.05-1.91,.27-2.13,2.33-2.16,2.72-.04,5.44-.02,8.15-.02h24.86c1.04,0,2.08,0,3.12,.04,1.32,.05,1.62,.33,1.67,1.56,.04,.91,.02,1.82,.02,2.72,0,4.66-.01,9.32,.02,13.99,.01,.7-.33,1.52,.57,2.27,1.12-1.37,2.21-2.76,3.35-4.11,6.22-7.4,13.77-12.88,23.06-15.79,4.1-1.27,8.28-2.12,12.6-2.04,1.05,.02,1.36,.38,1.48,1.34Z"/><path d="M329.48,72.8c-.22-9.1,7.3-17.2,17.21-17.14,9.73,.06,17.19,7.93,17.18,17.23,0,8.45-6.38,17.04-17.28,17.11-10.33,.06-17.39-8.3-17.11-17.2Z"/><path d="M376.33,73.05c.01-10.64,8.4-17.6,17.02-17.33,7.86-.38,17.46,5.38,17.42,17.3-.04,10.96-8.77,16.91-17,17-9.7,.1-17.44-7.36-17.44-16.97Z"/><path d="M370.44,163.84c.76,2.07,.97,4.25,1,6.89-.2,1.22-.37,2.89-.77,4.5-.6,2.39-2.38,3.83-4.63,3.96-2.05,.12-3.89-1.03-4.75-3.26-1.53-3.97-1.55-8.05-.26-12.07,.71-2.23,2.45-3.31,4.69-3.33,2.18,0,3.91,1.15,4.72,3.31Z"/><path d="M434.51,155.95c0-2.39-.46-4.59-1.25-6.8-4.84-13.52-9.63-27.06-14.43-40.59-.31-.85-.59-1.72-.93-2.55-.3-.76-.79-1.34-1.7-1.34-6.86,0-13.72-.01-20.58,.03-.71,0-1.17,.5-1.21,1.25-.04,.65-.07,1.29-.07,1.94-.01,4.02,.01,8.03-.02,12.04,0,.58,.21,1.33-.81,1.59-.37-.45-.78-.92-1.16-1.42-5.25-6.9-12.05-11.68-20.23-14.45-8.21-2.8-16.62-3.62-25.25-2.49-11.96,1.55-22.29,6.39-30.97,14.76-8.34,8.04-13.62,17.85-16.61,28.93-2.68,9.96-3.52,20.08-2.62,30.39,.78,8.98,2.68,17.64,6.4,25.86,5.38,11.92,13.5,21.42,25.14,27.63,11.9,6.36,24.56,7.79,37.67,5.06,10.89-2.26,19.99-7.63,26.79-16.6,.29-.39,.61-.75,1.45-1.75,.12,1.35,.2,1.86,.2,2.36,.02,3.89,.01,7.77,.03,11.65,0,.9,.04,1.81,.14,2.71,.06,.55,.44,.95,1.01,1,.9,.07,1.81,.09,2.71,.09h32.24c4.27,0,4.03,.28,4.03-3.95,0-25.12-.02-50.24,.03-75.35Zm-42.82,28.75c-7.77,19.09-30.14,21.87-42.96,11.69-2.99-2.37-5.51-5.15-7.21-8.54-5.76-11.46-6.2-23.24-.71-34.78,5.12-10.76,14.29-15.86,26.09-15.44,11.69,.41,19.93,6.44,24.66,17.12,2.07,4.65,2.81,9.43,2.76,16.38,.08,4.14-.74,8.96-2.63,13.57Z"/><path d="M568.41,143.44c.78,1.82,.77,3.36,.12,5.18-9.97,27.89-19.88,55.79-29.81,83.69-.04,.13-.08,.25-.12,.37-1.01,2.95-1.16,2.56-3.54,2.56-14.63,.01-29.26,.01-43.88,.01-3.1,0-2.84,.19-3.87-2.65-3.06-8.52-6.08-17.06-9.12-25.58-11.6-32.67-23.21-65.32-34.8-97.98-.46-1.32-1.22-2.58-1.1-4,.93-.59,1.87-.42,2.76-.42,12.16-.01,24.33-.01,36.5-.01,3.58,0,3.13-.06,4.14,3.26,8.6,28.19,17.18,56.41,25.79,84.61,.39,1.31,.56,2.76,1.76,4.24,.52-1.52,.96-2.66,1.31-3.82,8.53-27.95,17.03-55.91,25.59-83.85,1.53-4.98,.38-4.39,6-4.43,1.55-.01,3.1-.01,4.65,.03,.86,0,1.41,.45,1.75,1.27,1.23,2.98,2.53,5.94,3.78,8.93,4.02,9.53,7.98,19.09,12.09,28.59Z"/><path d="M724.67,104.91c.32,.97-.17,1.65-.47,2.33-8.91,20.95-17.85,41.89-26.77,62.83-10.29,24.16-20.56,48.32-30.86,72.48-7.35,17.25-14.74,34.49-22.1,51.74-.25,.59-.51,1.18-.77,1.78-.35,.8-1,1.14-1.84,1.17-.78,.01-1.55,.03-2.33,.03-11.78,.01-23.56,.01-35.34,0-.9,0-1.81-.03-2.7-.12-.64-.07-.86-.59-.7-1.13,.27-.86,.65-1.68,1.02-2.51,6.75-14.98,13.5-29.94,20.27-44.92,2.39-5.31,4.75-10.62,7.23-15.9,.66-1.42,.64-2.6,.02-4.03-5.52-12.97-10.98-25.97-16.46-38.96-8.7-20.61-17.41-41.22-26.11-61.84-2.56-6.07-5.14-12.15-7.7-18.23-.59-1.41-1.11-2.86-1.69-4.36,.96-.93,2.04-.68,3-.68,9.44-.02,18.9-.02,28.34-.02,3.5,.01,7,.09,10.49-.02,1.84-.07,2.77,.6,3.4,2.35,3.26,9,6.63,17.96,9.95,26.94,5.98,16.13,11.94,32.26,17.92,48.39,.36,.96,.75,1.91,1.13,2.86,1.44-.27,1.35-1.55,1.68-2.43,6.35-17.23,12.67-34.47,18.99-51.71,2.94-8.01,5.89-16.03,8.85-24.03,.85-2.29,.89-2.32,3.35-2.33,5.96-.03,11.91-.02,17.86-.02,6.35,0,12.69,0,19.03,.02,1.13,0,2.3-.2,3.31,.32Z"/><path d="M0,0V355H792.22V0H0ZM758.62,85.3c-5.31,12.5-10.62,25-15.94,37.49-18.41,43.21-36.81,86.41-55.23,129.6-9.18,21.54-18.37,43.08-27.56,64.61-.26,.59-.59,1.17-.76,1.78-.29,1.1-1.04,1.36-2.04,1.34-.78-.02-1.56,0-2.33,0-28.62,0-57.24,0-85.85-.02-1.27,0-2.55,.25-3.74-.25-.29-.75,.03-1.31,.3-1.9,7.7-16.97,15.39-33.93,23.07-50.9,5.12-11.32,10.18-22.65,15.35-33.93,.89-1.94,.86-3.59,.03-5.53-6.71-15.7-13.34-31.43-20-47.15-.34-.79-.37-1.83-1.55-2.19-1.59,4.48-3.21,8.97-4.81,13.46-3.21,9.01-6.43,18.02-9.61,27.04-3.71,10.48-7.38,20.98-11.08,31.46-.69,1.95-1.36,3.91-2.08,5.85-.74,1.98-.82,2.01-3.14,2.07-.52,.01-1.04,0-1.55,0h-74.2c-4.74-.01-3.78,.47-5.35-3.86-3.77-10.33-7.4-20.7-11.1-31.06-.33-.92-.7-1.85-1.26-3.32-.65,1.35-.49,2.22-.49,3.03-.02,10.1-.01,20.2-.02,30.3,0,1.03,.03,2.07-.01,3.1-.05,1.5-.29,1.73-1.86,1.79-1.04,.04-2.08,.02-3.11,.02-25.9,0-51.8,0-77.69-.01-1.95,0-3.86,.14-5.79,.5-8.7,1.64-17.47,1.99-26.25,.74-12.65-1.82-24.24-6.33-34.56-13.91-14.7-10.79-24.36-25.17-30.11-42.33-.37-1.09-.7-2.2-1.07-3.3-.02-.07-.23-.08-.48-.16-.47,1.36-.25,2.76-.25,4.14-.02,16.57-.01,33.14-.02,49.71-.01,5.03,.56,4.62-4.54,4.62h-53.21c-1.04,0-2.08,.02-3.12,.01-1.08-.01-1.63,.54-1.85,1.58-.2,1-.5,2-.78,2.99-2.76,9.68-6.94,18.67-12.92,26.78-10.69,14.47-24.86,23.94-42.03,29-9.11,2.69-18.42,3.91-27.94,4-10.15,.1-20.16-.73-30.03-3.14-14.18-3.47-27.05-9.52-38.02-19.31-11.86-10.59-19.33-23.78-23.01-39.2-1.11-4.68-1.59-9.44-2.16-14.19-.76-6.29-1.37-12.61-2.04-18.91-.05-.49-.05-.98-.07-1.37,.77-.71,1.58-.54,2.33-.55,2.72-.02,5.44,.03,8.16-.04,.84-.01,1.95,.5,2.44-.49,.38-.75-.46-1.39-.85-2.02-9.72-15.72-14.18-32.89-14.34-51.29-.06-7.92,.28-15.78,1.8-23.57,2.82-14.46,8.32-27.74,17.58-39.29,12.69-15.82,29.01-25.44,49.13-28.52,8.91-1.37,17.81-1.19,26.66,.34,2.06,.35,4.09,.53,6.16,.53,45.98-.01,91.94-.01,137.91,.02,1.65,0,3.38-.42,4.94,.54,.51,.31,1,.12,1.5-.01,7.47-1.89,15.09-2.09,22.74-2.01,1.91,.03,3.86,.26,5.92-.25-.07-.71-.11-1.33-.2-1.94-2.38-18.51,8.61-38.79,30.34-44.11,10.47-2.55,20.55-1.04,30,4.26,.34,.19,.69,.36,1,.61,1.37,1.12,2.56,1.16,4.15,.1,4.71-3.11,9.95-4.91,15.54-5.68,21.24-2.95,40.51,10.22,45.2,30.78,1.16,5.11,1.14,10.26,.54,15.44-.06,.51-.13,1.02-.17,1.52-.01,.12,.06,.24,.11,.4,1.34,.61,2.78,.31,4.18,.32,19.94,.01,39.88-.01,59.82,.02,5.22,.02,4.13-.79,5.68,4.23,3.06,9.89,6.07,19.78,9.1,29.68,.18,.6,.24,1.28,.97,1.68,.72,.1,.51-.63,.69-.99,.23-.46,.37-.97,.52-1.46,2.94-9.65,5.82-19.32,8.83-28.95,1.51-4.85,.41-4.19,5.75-4.19,34.83-.02,69.66-.02,104.5,0,5.16,.01,4.04-.73,5.89,4.19,3.72,9.93,7.39,19.88,11.08,29.82,.38,1.04,.79,2.05,1.25,3.22,1.37-1.05,1.46-2.44,1.9-3.6,3.74-10.06,7.42-20.15,11.15-30.21,1.43-3.85,.79-3.43,4.89-3.43,29-.01,58,0,87.01,0h3.12c.22,1.58-.58,2.67-1.06,3.83Z"/></g></g></g></svg>