<?xml version="1.0" encoding="UTF-8"?><svg xmlns="http://www.w3.org/2000/svg" viewBox="0 0 887.72 354"><defs><style>.d{fill:#666;}</style></defs><g id="a"/><g id="b"><g id="c"><g><path class="d" d="M887.67,59.78h-3.81c-35.41,0-70.82-.01-106.22,0-5,0-4.22-.51-5.97,4.18-4.55,12.29-9.04,24.6-13.61,36.88-.53,1.42-.64,3.12-2.32,4.39-.55-1.42-1.05-2.66-1.52-3.92-4.51-12.14-8.98-24.29-13.53-36.41-2.25-6-.89-5.1-7.19-5.11-42.52-.03-85.04-.03-127.56,0-6.52,0-5.17-.8-7.02,5.12-3.67,11.75-7.19,23.55-10.78,35.33-.18,.6-.35,1.22-.63,1.78-.22,.44,.04,1.34-.84,1.22-.89-.5-.96-1.33-1.18-2.06-3.7-12.08-7.38-24.16-11.11-36.23-1.9-6.12-.57-5.14-6.94-5.16-24.34-.04-48.68-.01-73.02-.03-1.71-.01-3.47,.36-5.1-.38-.06-.2-.15-.35-.14-.49,.05-.62,.14-1.24,.21-1.86,.73-6.32,.76-12.61-.66-18.85-5.72-25.09-29.24-41.17-55.17-37.57-6.82,.94-13.22,3.14-18.97,6.94-1.94,1.29-3.4,1.24-5.07-.13-.37-.3-.8-.51-1.22-.74-11.53-6.47-23.84-8.32-36.62-5.2-26.53,6.49-39.94,31.25-37.03,53.84,.1,.75,.16,1.5,.24,2.37-2.52,.62-4.89,.34-7.23,.31-9.34-.1-18.64,.14-27.76,2.45-.6,.16-1.21,.39-1.83,.01-1.9-1.17-4.01-.66-6.03-.66-56.11-.03-112.22-.03-168.34-.02-2.53,0-5.01-.22-7.52-.65-10.81-1.87-21.67-2.09-32.55-.42-24.55,3.76-44.48,15.51-59.97,34.82-11.3,14.1-18.02,30.31-21.46,47.96C.35,151-.07,160.6,0,170.26c.19,22.46,5.64,43.42,17.5,62.61,.48,.77,1.5,1.55,1.04,2.47-.6,1.21-1.96,.58-2.98,.6-3.32,.08-6.64,.02-9.96,.04-.92,.01-1.91-.19-2.85,.67,.03,.48,.03,1.08,.09,1.68,.82,7.69,1.56,15.4,2.49,23.08,.7,5.8,1.28,11.61,2.64,17.32,4.49,18.82,13.61,34.92,28.09,47.85,13.38,11.95,29.1,19.34,46.41,23.57,12.04,2.95,24.26,3.96,36.65,3.84,11.62-.11,22.99-1.6,34.11-4.88,20.96-6.18,38.25-17.74,51.3-35.41,7.31-9.9,12.41-20.87,15.77-32.68,.35-1.21,.71-2.43,.96-3.66,.27-1.27,.94-1.94,2.26-1.92,1.27,.01,2.53-.02,3.8-.02,21.65,0,43.31,.01,64.96,0,6.22,0,5.53,.51,5.54-5.63,.01-20.23,0-40.46,.02-60.69,0-1.68-.26-3.39,.31-5.05,.31,.1,.56,.11,.59,.2,.45,1.34,.85,2.69,1.3,4.03,7.02,20.94,18.81,38.49,36.75,51.66,12.6,9.26,26.75,14.76,42.19,16.98,10.72,1.53,21.42,1.1,32.05-.9,2.35-.44,4.68-.61,7.06-.61,31.61,.02,63.22,.01,94.84,.01,1.26,0,2.53,.03,3.79-.02,1.92-.07,2.21-.35,2.27-2.18,.05-1.26,.02-2.53,.02-3.79,.01-12.33,0-24.66,.02-36.99,0-.99-.19-2.05,.6-3.7,.68,1.8,1.13,2.93,1.54,4.06,4.51,12.64,8.95,25.3,13.55,37.91,1.92,5.29,.74,4.7,6.53,4.71,30.19,.01,60.38,0,90.57,0,.63,0,1.26,.02,1.9,0,2.83-.07,2.93-.1,3.83-2.52,.88-2.37,1.7-4.76,2.54-7.14,4.51-12.8,8.99-25.61,13.52-38.41,3.89-11.01,7.82-22.01,11.74-33.01,1.95-5.48,3.92-10.95,5.87-16.43,1.44,.44,1.47,1.71,1.89,2.68,8.13,19.19,16.22,38.39,24.41,57.56,1.01,2.36,1.05,4.38-.03,6.74-6.32,13.77-12.49,27.61-18.74,41.42-9.38,20.72-18.77,41.42-28.16,62.13-.33,.72-.73,1.41-.37,2.33,1.45,.61,3.02,.3,4.56,.3,34.93,.02,69.86,.02,104.8,.02,.94,0,1.89-.02,2.84,0,1.22,.03,2.14-.29,2.5-1.63,.2-.75,.61-1.45,.92-2.18,11.22-26.28,22.44-52.57,33.65-78.86,22.48-52.73,44.94-105.46,67.41-158.2,6.5-15.25,12.98-30.51,19.46-45.77,.59-1.41,1.57-2.74,1.3-4.67ZM119.55,167.65c.01,2.78-.3,5.26-1.27,7.65-1.01,2.5-2.92,3.71-5.5,3.74-2.41,.02-4.28-1.19-5.24-3.42-2.23-5.15-2.31-10.4-.32-15.66,.96-2.54,2.97-3.58,5.55-3.66,2.69-.07,4.48,1.31,5.5,3.71,1.07,2.51,1.36,5.17,1.28,7.64Zm281.49-7.3c.87-2.72,2.99-4.04,5.72-4.06,2.66-.01,4.78,1.4,5.76,4.04,.93,2.52,1.19,5.18,1.23,8.41-.25,1.48-.46,3.52-.95,5.49-.73,2.92-2.9,4.67-5.65,4.83-2.5,.15-4.74-1.26-5.79-3.98-1.87-4.84-1.89-9.82-.32-14.73Z"/><path d="M438.31,149.23c-5.78-13.04-15.84-20.4-30.11-20.9-14.4-.51-25.59,5.72-31.84,18.85-6.7,14.09-6.17,28.46,.86,42.45,2.08,4.14,5.16,7.54,8.8,10.43,15.65,12.42,42.96,9.03,52.45-14.27,2.3-5.63,3.3-11.51,3.21-16.56,.06-8.49-.85-14.32-3.37-20Zm-25.51,25c-.73,2.92-2.9,4.67-5.65,4.83-2.5,.15-4.74-1.26-5.79-3.98-1.87-4.84-1.89-9.82-.32-14.73,.87-2.72,2.99-4.04,5.72-4.06,2.66-.01,4.78,1.4,5.76,4.04,.93,2.52,1.19,5.18,1.23,8.41-.25,1.48-.46,3.52-.95,5.49Zm25.51-25c-5.78-13.04-15.84-20.4-30.11-20.9-14.4-.51-25.59,5.72-31.84,18.85-6.7,14.09-6.17,28.46,.86,42.45,2.08,4.14,5.16,7.54,8.8,10.43,15.65,12.42,42.96,9.03,52.45-14.27,2.3-5.63,3.3-11.51,3.21-16.56,.06-8.49-.85-14.32-3.37-20Zm-25.51,25c-.73,2.92-2.9,4.67-5.65,4.83-2.5,.15-4.74-1.26-5.79-3.98-1.87-4.84-1.89-9.82-.32-14.73,.87-2.72,2.99-4.04,5.72-4.06,2.66-.01,4.78,1.4,5.76,4.04,.93,2.52,1.19,5.18,1.23,8.41-.25,1.48-.46,3.52-.95,5.49Zm25.51-25c-5.78-13.04-15.84-20.4-30.11-20.9-14.4-.51-25.59,5.72-31.84,18.85-6.7,14.09-6.17,28.46,.86,42.45,2.08,4.14,5.16,7.54,8.8,10.43,15.65,12.42,42.96,9.03,52.45-14.27,2.3-5.63,3.3-11.51,3.21-16.56,.06-8.49-.85-14.32-3.37-20Zm-25.51,25c-.73,2.92-2.9,4.67-5.65,4.83-2.5,.15-4.74-1.26-5.79-3.98-1.87-4.84-1.89-9.82-.32-14.73,.87-2.72,2.99-4.04,5.72-4.06,2.66-.01,4.78,1.4,5.76,4.04,.93,2.52,1.19,5.18,1.23,8.41-.25,1.48-.46,3.52-.95,5.49Zm25.51-25c-5.78-13.04-15.84-20.4-30.11-20.9-14.4-.51-25.59,5.72-31.84,18.85-6.7,14.09-6.17,28.46,.86,42.45,2.08,4.14,5.16,7.54,8.8,10.43,15.65,12.42,42.96,9.03,52.45-14.27,2.3-5.63,3.3-11.51,3.21-16.56,.06-8.49-.85-14.32-3.37-20Zm-25.51,25c-.73,2.92-2.9,4.67-5.65,4.83-2.5,.15-4.74-1.26-5.79-3.98-1.87-4.84-1.89-9.82-.32-14.73,.87-2.72,2.99-4.04,5.72-4.06,2.66-.01,4.78,1.4,5.76,4.04,.93,2.52,1.19,5.18,1.23,8.41-.25,1.48-.46,3.52-.95,5.49Zm-268.62-25.09c-8.38-19.78-30.14-25.5-46.2-17.57-9,4.43-14.79,11.59-17.95,21.01-2.42,7.19-2.64,14.61-1.75,22.02,.8,6.66,2.95,12.96,7.07,18.37,7.78,10.23,18.17,14.97,30.96,13.84,7.94-.69,15.02-3.77,20.57-9.66,4.74-5.03,7.88-11,9.52-17.75,.94-3.88,1.16-7.8,1.1-12.09,.23-6.08-.83-12.28-3.32-18.17Zm-24.63,18.51c.01,2.78-.3,5.26-1.27,7.65-1.01,2.5-2.92,3.71-5.5,3.74-2.41,.02-4.28-1.19-5.24-3.42-2.23-5.15-2.31-10.4-.32-15.66,.96-2.54,2.97-3.58,5.55-3.66,2.69-.07,4.48,1.31,5.5,3.71,1.07,2.51,1.36,5.17,1.28,7.64Zm318.76-18.42c-5.78-13.04-15.84-20.4-30.11-20.9-14.4-.51-25.59,5.72-31.84,18.85-6.7,14.09-6.17,28.46,.86,42.45,2.08,4.14,5.16,7.54,8.8,10.43,15.65,12.42,42.96,9.03,52.45-14.27,2.3-5.63,3.3-11.51,3.21-16.56,.06-8.49-.85-14.32-3.37-20Zm-25.51,25c-.73,2.92-2.9,4.67-5.65,4.83-2.5,.15-4.74-1.26-5.79-3.98-1.87-4.84-1.89-9.82-.32-14.73,.87-2.72,2.99-4.04,5.72-4.06,2.66-.01,4.78,1.4,5.76,4.04,.93,2.52,1.19,5.18,1.23,8.41-.25,1.48-.46,3.52-.95,5.49Zm25.51-25c-5.78-13.04-15.84-20.4-30.11-20.9-14.4-.51-25.59,5.72-31.84,18.85-6.7,14.09-6.17,28.46,.86,42.45,2.08,4.14,5.16,7.54,8.8,10.43,15.65,12.42,42.96,9.03,52.45-14.27,2.3-5.63,3.3-11.51,3.21-16.56,.06-8.49-.85-14.32-3.37-20Zm-25.51,25c-.73,2.92-2.9,4.67-5.65,4.83-2.5,.15-4.74-1.26-5.79-3.98-1.87-4.84-1.89-9.82-.32-14.73,.87-2.72,2.99-4.04,5.72-4.06,2.66-.01,4.78,1.4,5.76,4.04,.93,2.52,1.19,5.18,1.23,8.41-.25,1.48-.46,3.52-.95,5.49Zm-268.62-25.09c-8.38-19.78-30.14-25.5-46.2-17.57-9,4.43-14.79,11.59-17.95,21.01-2.42,7.19-2.64,14.61-1.75,22.02,.8,6.66,2.95,12.96,7.07,18.37,7.78,10.23,18.17,14.97,30.96,13.84,7.94-.69,15.02-3.77,20.57-9.66,4.74-5.03,7.88-11,9.52-17.75,.94-3.88,1.16-7.8,1.1-12.09,.23-6.08-.83-12.28-3.32-18.17Zm-24.63,18.51c.01,2.78-.3,5.26-1.27,7.65-1.01,2.5-2.92,3.71-5.5,3.74-2.41,.02-4.28-1.19-5.24-3.42-2.23-5.15-2.31-10.4-.32-15.66,.96-2.54,2.97-3.58,5.55-3.66,2.69-.07,4.48,1.31,5.5,3.71,1.07,2.51,1.36,5.17,1.28,7.64Zm24.63-18.51c-8.38-19.78-30.14-25.5-46.2-17.57-9,4.43-14.79,11.59-17.95,21.01-2.42,7.19-2.64,14.61-1.75,22.02,.8,6.66,2.95,12.96,7.07,18.37,7.78,10.23,18.17,14.97,30.96,13.84,7.94-.69,15.02-3.77,20.57-9.66,4.74-5.03,7.88-11,9.52-17.75,.94-3.88,1.16-7.8,1.1-12.09,.23-6.08-.83-12.28-3.32-18.17Zm-24.63,18.51c.01,2.78-.3,5.26-1.27,7.65-1.01,2.5-2.92,3.71-5.5,3.74-2.41,.02-4.28-1.19-5.24-3.42-2.23-5.15-2.31-10.4-.32-15.66,.96-2.54,2.97-3.58,5.55-3.66,2.69-.07,4.48,1.31,5.5,3.71,1.07,2.51,1.36,5.17,1.28,7.64Zm318.76-18.42c-5.78-13.04-15.84-20.4-30.11-20.9-14.4-.51-25.59,5.72-31.84,18.85-6.7,14.09-6.17,28.46,.86,42.45,2.08,4.14,5.16,7.54,8.8,10.43,15.65,12.42,42.96,9.03,52.45-14.27,2.3-5.63,3.3-11.51,3.21-16.56,.06-8.49-.85-14.32-3.37-20Zm-25.51,25c-.73,2.92-2.9,4.67-5.65,4.83-2.5,.15-4.74-1.26-5.79-3.98-1.87-4.84-1.89-9.82-.32-14.73,.87-2.72,2.99-4.04,5.72-4.06,2.66-.01,4.78,1.4,5.76,4.04,.93,2.52,1.19,5.18,1.23,8.41-.25,1.48-.46,3.52-.95,5.49Zm25.51-25c-5.78-13.04-15.84-20.4-30.11-20.9-14.4-.51-25.59,5.72-31.84,18.85-6.7,14.09-6.17,28.46,.86,42.45,2.08,4.14,5.16,7.54,8.8,10.43,15.65,12.42,42.96,9.03,52.45-14.27,2.3-5.63,3.3-11.51,3.21-16.56,.06-8.49-.85-14.32-3.37-20Zm-25.51,25c-.73,2.92-2.9,4.67-5.65,4.83-2.5,.15-4.74-1.26-5.79-3.98-1.87-4.84-1.89-9.82-.32-14.73,.87-2.72,2.99-4.04,5.72-4.06,2.66-.01,4.78,1.4,5.76,4.04,.93,2.52,1.19,5.18,1.23,8.41-.25,1.48-.46,3.52-.95,5.49Zm-268.62-25.09c-8.38-19.78-30.14-25.5-46.2-17.57-9,4.43-14.79,11.59-17.95,21.01-2.42,7.19-2.64,14.61-1.75,22.02,.8,6.66,2.95,12.96,7.07,18.37,7.78,10.23,18.17,14.97,30.96,13.84,7.94-.69,15.02-3.77,20.57-9.66,4.74-5.03,7.88-11,9.52-17.75,.94-3.88,1.16-7.8,1.1-12.09,.23-6.08-.83-12.28-3.32-18.17Zm-24.63,18.51c.01,2.78-.3,5.26-1.27,7.65-1.01,2.5-2.92,3.71-5.5,3.74-2.41,.02-4.28-1.19-5.24-3.42-2.23-5.15-2.31-10.4-.32-15.66,.96-2.54,2.97-3.58,5.55-3.66,2.69-.07,4.48,1.31,5.5,3.71,1.07,2.51,1.36,5.17,1.28,7.64Zm24.63-18.51c-8.38-19.78-30.14-25.5-46.2-17.57-9,4.43-14.79,11.59-17.95,21.01-2.42,7.19-2.64,14.61-1.75,22.02,.8,6.66,2.95,12.96,7.07,18.37,7.78,10.23,18.17,14.97,30.96,13.84,7.94-.69,15.02-3.77,20.57-9.66,4.74-5.03,7.88-11,9.52-17.75,.94-3.88,1.16-7.8,1.1-12.09,.23-6.08-.83-12.28-3.32-18.17Zm-24.63,18.51c.01,2.78-.3,5.26-1.27,7.65-1.01,2.5-2.92,3.71-5.5,3.74-2.41,.02-4.28-1.19-5.24-3.42-2.23-5.15-2.31-10.4-.32-15.66,.96-2.54,2.97-3.58,5.55-3.66,2.69-.07,4.48,1.31,5.5,3.71,1.07,2.51,1.36,5.17,1.28,7.64Zm318.76-18.42c-5.78-13.04-15.84-20.4-30.11-20.9-14.4-.51-25.59,5.72-31.84,18.85-6.7,14.09-6.17,28.46,.86,42.45,2.08,4.14,5.16,7.54,8.8,10.43,15.65,12.42,42.96,9.03,52.45-14.27,2.3-5.63,3.3-11.51,3.21-16.56,.06-8.49-.85-14.32-3.37-20Zm-25.51,25c-.73,2.92-2.9,4.67-5.65,4.83-2.5,.15-4.74-1.26-5.79-3.98-1.87-4.84-1.89-9.82-.32-14.73,.87-2.72,2.99-4.04,5.72-4.06,2.66-.01,4.78,1.4,5.76,4.04,.93,2.52,1.19,5.18,1.23,8.41-.25,1.48-.46,3.52-.95,5.49Zm25.51-25c-5.78-13.04-15.84-20.4-30.11-20.9-14.4-.51-25.59,5.72-31.84,18.85-6.7,14.09-6.17,28.46,.86,42.45,2.08,4.14,5.16,7.54,8.8,10.43,15.65,12.42,42.96,9.03,52.45-14.27,2.3-5.63,3.3-11.51,3.21-16.56,.06-8.49-.85-14.32-3.37-20Zm-25.51,25c-.73,2.92-2.9,4.67-5.65,4.83-2.5,.15-4.74-1.26-5.79-3.98-1.87-4.84-1.89-9.82-.32-14.73,.87-2.72,2.99-4.04,5.72-4.06,2.66-.01,4.78,1.4,5.76,4.04,.93,2.52,1.19,5.18,1.23,8.41-.25,1.48-.46,3.52-.95,5.49Zm-268.62-25.09c-8.38-19.78-30.14-25.5-46.2-17.57-9,4.43-14.79,11.59-17.95,21.01-2.42,7.19-2.64,14.61-1.75,22.02,.8,6.66,2.95,12.96,7.07,18.37,7.78,10.23,18.17,14.97,30.96,13.84,7.94-.69,15.02-3.77,20.57-9.66,4.74-5.03,7.88-11,9.52-17.75,.94-3.88,1.16-7.8,1.1-12.09,.23-6.08-.83-12.28-3.32-18.17Zm-24.63,18.51c.01,2.78-.3,5.26-1.27,7.65-1.01,2.5-2.92,3.71-5.5,3.74-2.41,.02-4.28-1.19-5.24-3.42-2.23-5.15-2.31-10.4-.32-15.66,.96-2.54,2.97-3.58,5.55-3.66,2.69-.07,4.48,1.31,5.5,3.71,1.07,2.51,1.36,5.17,1.28,7.64Zm24.63-18.51c-8.38-19.78-30.14-25.5-46.2-17.57-9,4.43-14.79,11.59-17.95,21.01-2.42,7.19-2.64,14.61-1.75,22.02,.8,6.66,2.95,12.96,7.07,18.37,7.78,10.23,18.17,14.97,30.96,13.84,7.94-.69,15.02-3.77,20.57-9.66,4.74-5.03,7.88-11,9.52-17.75,.94-3.88,1.16-7.8,1.1-12.09,.23-6.08-.83-12.28-3.32-18.17Zm-24.63,18.51c.01,2.78-.3,5.26-1.27,7.65-1.01,2.5-2.92,3.71-5.5,3.74-2.41,.02-4.28-1.19-5.24-3.42-2.23-5.15-2.31-10.4-.32-15.66,.96-2.54,2.97-3.58,5.55-3.66,2.69-.07,4.48,1.31,5.5,3.71,1.07,2.51,1.36,5.17,1.28,7.64Zm318.76-18.42c-5.78-13.04-15.84-20.4-30.11-20.9-14.4-.51-25.59,5.72-31.84,18.85-6.7,14.09-6.17,28.46,.86,42.45,2.08,4.14,5.16,7.54,8.8,10.43,15.65,12.42,42.96,9.03,52.45-14.27,2.3-5.63,3.3-11.51,3.21-16.56,.06-8.49-.85-14.32-3.37-20Zm-25.51,25c-.73,2.92-2.9,4.67-5.65,4.83-2.5,.15-4.74-1.26-5.79-3.98-1.87-4.84-1.89-9.82-.32-14.73,.87-2.72,2.99-4.04,5.72-4.06,2.66-.01,4.78,1.4,5.76,4.04,.93,2.52,1.19,5.18,1.23,8.41-.25,1.48-.46,3.52-.95,5.49Zm25.51-25c-5.78-13.04-15.84-20.4-30.11-20.9-14.4-.51-25.59,5.72-31.84,18.85-6.7,14.09-6.17,28.46,.86,42.45,2.08,4.14,5.16,7.54,8.8,10.43,15.65,12.42,42.96,9.03,52.45-14.27,2.3-5.63,3.3-11.51,3.21-16.56,.06-8.49-.85-14.32-3.37-20Zm-25.51,25c-.73,2.92-2.9,4.67-5.65,4.83-2.5,.15-4.74-1.26-5.79-3.98-1.87-4.84-1.89-9.82-.32-14.73,.87-2.72,2.99-4.04,5.72-4.06,2.66-.01,4.78,1.4,5.76,4.04,.93,2.52,1.19,5.18,1.23,8.41-.25,1.48-.46,3.52-.95,5.49Zm-268.62-25.09c-8.38-19.78-30.14-25.5-46.2-17.57-9,4.43-14.79,11.59-17.95,21.01-2.42,7.19-2.64,14.61-1.75,22.02,.8,6.66,2.95,12.96,7.07,18.37,7.78,10.23,18.17,14.97,30.96,13.84,7.94-.69,15.02-3.77,20.57-9.66,4.74-5.03,7.88-11,9.52-17.75,.94-3.88,1.16-7.8,1.1-12.09,.23-6.08-.83-12.28-3.32-18.17Zm-24.63,18.51c.01,2.78-.3,5.26-1.27,7.65-1.01,2.5-2.92,3.71-5.5,3.74-2.41,.02-4.28-1.19-5.24-3.42-2.23-5.15-2.31-10.4-.32-15.66,.96-2.54,2.97-3.58,5.55-3.66,2.69-.07,4.48,1.31,5.5,3.71,1.07,2.51,1.36,5.17,1.28,7.64ZM887.67,59.78h-3.81c-35.41,0-70.82-.01-106.22,0-5,0-4.22-.51-5.97,4.18-4.55,12.29-9.04,24.6-13.61,36.88-.53,1.42-.64,3.12-2.32,4.39-.55-1.42-1.05-2.66-1.52-3.92-4.51-12.14-8.98-24.29-13.53-36.41-2.25-6-.89-5.1-7.19-5.11-42.52-.03-85.04-.03-127.56,0-6.52,0-5.17-.8-7.02,5.12-3.67,11.75-7.19,23.55-10.78,35.33-.18,.6-.35,1.22-.63,1.78-.22,.44,.04,1.34-.84,1.22-.89-.5-.96-1.33-1.18-2.06-3.7-12.08-7.38-24.16-11.11-36.23-1.9-6.12-.57-5.14-6.94-5.16-24.34-.04-48.68-.01-73.02-.03-1.71-.01-3.47,.36-5.1-.38-.06-.2-.15-.35-.14-.49,.05-.62,.14-1.24,.21-1.86,.73-6.32,.76-12.61-.66-18.85-5.72-25.09-29.24-41.17-55.17-37.57-6.82,.94-13.22,3.14-18.97,6.94-1.94,1.29-3.4,1.24-5.07-.13-.37-.3-.8-.51-1.22-.74-11.53-6.47-23.84-8.32-36.62-5.2-26.53,6.49-39.94,31.25-37.03,53.84,.1,.75,.16,1.5,.24,2.37-2.52,.62-4.89,.34-7.23,.31-9.34-.1-18.64,.14-27.76,2.45-.6,.16-1.21,.39-1.83,.01-1.9-1.17-4.01-.66-6.03-.66-56.11-.03-112.22-.03-168.34-.02-2.53,0-5.01-.22-7.52-.65-10.81-1.87-21.67-2.09-32.55-.42-24.55,3.76-44.48,15.51-59.97,34.82-11.3,14.1-18.02,30.31-21.46,47.96C.35,151-.07,160.6,0,170.26c.19,22.46,5.64,43.42,17.5,62.61,.48,.77,1.5,1.55,1.04,2.47-.6,1.21-1.96,.58-2.98,.6-3.32,.08-6.64,.02-9.96,.04-.92,.01-1.91-.19-2.85,.67,.03,.48,.03,1.08,.09,1.68,.82,7.69,1.56,15.4,2.49,23.08,.7,5.8,1.28,11.61,2.64,17.32,4.49,18.82,13.61,34.92,28.09,47.85,13.38,11.95,29.1,19.34,46.41,23.57,12.04,2.95,24.26,3.96,36.65,3.84,11.62-.11,22.99-1.6,34.11-4.88,20.96-6.18,38.25-17.74,51.3-35.41,7.31-9.9,12.41-20.87,15.77-32.68,.35-1.21,.71-2.43,.96-3.66,.27-1.27,.94-1.94,2.26-1.92,1.27,.01,2.53-.02,3.8-.02,21.65,0,43.31,.01,64.96,0,6.22,0,5.53,.51,5.54-5.63,.01-20.23,0-40.46,.02-60.69,0-1.68-.26-3.39,.31-5.05,.31,.1,.56,.11,.59,.2,.45,1.34,.85,2.69,1.3,4.03,7.02,20.94,18.81,38.49,36.75,51.66,12.6,9.26,26.75,14.76,42.19,16.98,10.72,1.53,21.42,1.1,32.05-.9,2.35-.44,4.68-.61,7.06-.61,31.61,.02,63.22,.01,94.84,.01,1.26,0,2.53,.03,3.79-.02,1.92-.07,2.21-.35,2.27-2.18,.05-1.26,.02-2.53,.02-3.79,.01-12.33,0-24.66,.02-36.99,0-.99-.19-2.05,.6-3.7,.68,1.8,1.13,2.93,1.54,4.06,4.51,12.64,8.95,25.3,13.55,37.91,1.92,5.29,.74,4.7,6.53,4.71,30.19,.01,60.38,0,90.57,0,.63,0,1.26,.02,1.9,0,2.83-.07,2.93-.1,3.83-2.52,.88-2.37,1.7-4.76,2.54-7.14,4.51-12.8,8.99-25.61,13.52-38.41,3.89-11.01,7.82-22.01,11.74-33.01,1.95-5.48,3.92-10.95,5.87-16.43,1.44,.44,1.47,1.71,1.89,2.68,8.13,19.19,16.22,38.39,24.41,57.56,1.01,2.36,1.05,4.38-.03,6.74-6.32,13.77-12.49,27.61-18.74,41.42-9.38,20.72-18.77,41.42-28.16,62.13-.33,.72-.73,1.41-.37,2.33,1.45,.61,3.02,.3,4.56,.3,34.93,.02,69.86,.02,104.8,.02,.94,0,1.89-.02,2.84,0,1.22,.03,2.14-.29,2.5-1.63,.2-.75,.61-1.45,.92-2.18,11.22-26.28,22.44-52.57,33.65-78.86,22.48-52.73,44.94-105.46,67.41-158.2,6.5-15.25,12.98-30.51,19.46-45.77,.59-1.41,1.57-2.74,1.3-4.67ZM191.07,279.77c-8.44,22.11-24.2,36.2-46.83,42.64-10.71,3.06-21.71,3.87-32.84,3.38-9.2-.41-18.25-1.58-27.08-4.22-12.62-3.77-23.92-9.84-33.09-19.5-9.21-9.71-14.49-21.33-16.71-34.43-.13-.77-.17-1.57-.16-2.36,.01-.69,.41-1.22,1.12-1.3,.94-.1,1.89-.1,2.84-.1,13.43-.01,26.87-.01,40.31,0,.79,0,1.58,.01,2.37,.04,.88,.04,1.45,.5,1.73,1.33,.05,.15,.1,.3,.16,.45,3.48,9.04,10.43,13.97,19.48,16.42,7.47,2.02,15,2.18,22.5,.35,9.37-2.28,16.04-7.84,19.67-16.89,1.48-3.7,2.6-7.52,2.72-11.48,.27-9.15,.29-18.31,.4-27.31-1.34-.7-1.68,.22-2.1,.76-11.57,14.96-27.18,21.58-45.72,22.01-16.26,.38-30.84-4.43-43.47-14.72-10.83-8.8-18.17-20.09-22.79-33.18-2.75-7.79-4.28-15.81-5.09-24.04-1.3-13.06-.24-25.88,3.21-38.5,3.66-13.35,10.06-25.18,20.11-34.88,10.47-10.1,22.9-16,37.31-18,11.04-1.53,21.76-.49,32.21,3.22,9.6,3.4,17.66,9.06,23.83,17.27,.47,.62,.98,1.21,1.8,2.21,.88-1.88,.58-3.3,.59-4.68,.05-4.58-.01-9.16,.05-13.75,.02-2.05,.45-2.41,2.55-2.51,.78-.04,1.58-.01,2.37-.01,11.69-.01,23.39-.01,35.09-.01,.63,0,1.26-.01,1.9,.01,3,.09,3.12,.21,3.2,3.29,.02,.79,0,1.58,0,2.37,0,58.97,0,117.93,.04,176.89,0,3.23-.54,6.23-1.68,9.23ZM440.49,28.34c9.6-.46,21.32,6.57,21.27,21.12-.05,13.38-10.71,20.65-20.76,20.76-11.84,.12-21.29-8.99-21.28-20.72,.01-12.99,10.25-21.49,20.77-21.16Zm-77.96,20.85c-.27-11.1,8.91-20.99,21-20.92,11.88,.07,20.99,9.68,20.98,21.03,0,10.32-7.79,20.81-21.1,20.89-12.61,.07-21.22-10.13-20.88-21Zm-44.68,44.4c-8.52,10.61-14.48,22.56-18.44,35.54-.78,2.57-1.43,5.18-2.08,7.78-.26,1.06-.83,1.6-1.91,1.76-1.25,.19-2.47,.51-3.71,.78-12.04,2.65-18.73,10.37-21.05,22.23-.83,4.21-1,8.46-1,12.74,.01,22.29,.02,44.58-.01,66.86-.01,7.13,.89,6.18-6.36,6.2-12.65,.05-25.3,.01-37.94,.02-4.77,0-4.74,.22-4.74-4.6,.02-29.09,.01-58.17,.01-87.26v-61.17c0-1.27-.02-2.53,.02-3.79,.07-2.33,.33-2.6,2.85-2.63,3.32-.05,6.64-.02,9.95-.02h30.35c1.27,0,2.53-.01,3.8,.04,1.61,.06,1.98,.41,2.04,1.91,.05,1.11,.03,2.22,.03,3.32,0,5.69-.02,11.38,.02,17.07,.01,.86-.4,1.86,.7,2.78,1.36-1.68,2.7-3.37,4.09-5.02,7.59-9.04,16.81-15.72,28.15-19.27,5-1.56,10.1-2.59,15.37-2.49,1.29,.02,1.66,.46,1.81,1.63,.29,2.22-.6,3.91-1.95,5.59Zm172.85,149.08c0,5.17,.29,4.82-4.92,4.83-13.12,0-26.24,0-39.36-.01-1.1,0-2.21-.02-3.3-.11-.7-.06-1.16-.55-1.24-1.21-.12-1.1-.17-2.21-.17-3.31-.02-4.74,0-9.48-.03-14.22,0-.62-.1-1.24-.25-2.89-1.02,1.23-1.42,1.67-1.77,2.14-8.3,10.95-19.41,17.5-32.7,20.27-16,3.33-31.46,1.58-45.99-6.18-14.2-7.58-24.11-19.18-30.68-33.73-4.54-10.03-6.86-20.6-7.81-31.57-1.1-12.58-.08-24.94,3.19-37.09,3.65-13.53,10.1-25.51,20.28-35.32,10.59-10.21,23.21-16.12,37.8-18.02,10.54-1.38,20.81-.38,30.83,3.04,9.98,3.39,18.28,9.22,24.69,17.64,.46,.61,.97,1.19,1.42,1.74,1.24-.32,.98-1.24,.98-1.94,.04-4.9,.02-9.8,.03-14.7,0-.79,.04-1.58,.08-2.37,.05-.92,.62-1.52,1.48-1.52,8.37-.05,16.75-.04,25.12-.04,1.12,0,1.71,.71,2.08,1.63,.42,1.02,.76,2.08,1.13,3.12,5.86,16.51,11.71,33.04,17.62,49.54,.96,2.7,1.53,5.39,1.53,8.3-.07,30.66-.04,61.32-.04,91.98Zm163.63-100.92c-12.17,34.04-24.27,68.1-36.39,102.16-.05,.15-.09,.3-.14,.45-1.24,3.6-1.42,3.12-4.33,3.12-17.85,.02-35.71,.02-53.56,.01-3.78,0-3.47,.24-4.72-3.23-3.74-10.4-7.43-20.82-11.13-31.23-14.17-39.87-28.34-79.73-42.48-119.6-.57-1.61-1.49-3.15-1.35-4.88,1.14-.72,2.28-.51,3.37-.51,14.85-.01,29.7-.01,44.55-.01,4.37,0,3.83-.08,5.06,3.97,10.5,34.42,20.97,68.86,31.48,103.28,.48,1.6,.68,3.38,2.15,5.18,.64-1.85,1.17-3.24,1.6-4.66,10.41-34.12,20.79-68.25,31.24-102.36,1.86-6.07,.46-5.36,7.32-5.4,1.89-.02,3.79-.01,5.68,.03,1.05,.02,1.72,.55,2.13,1.55,1.51,3.64,3.09,7.26,4.62,10.9,4.9,11.64,9.74,23.31,14.75,34.9,.96,2.22,.94,4.11,.15,6.33Zm190.03-50.51c-10.88,25.57-21.79,51.13-32.68,76.69-12.56,29.49-25.1,58.99-37.67,88.47-8.97,21.06-17.99,42.11-26.98,63.16-.31,.73-.62,1.45-.94,2.18-.43,.97-1.22,1.39-2.25,1.42-.95,.02-1.89,.04-2.84,.04-14.38,.01-28.76,.01-43.14,0-1.1,0-2.21-.04-3.3-.15-.78-.08-1.05-.72-.85-1.37,.33-1.05,.79-2.06,1.24-3.07,8.24-18.28,16.49-36.55,24.75-54.83,2.92-6.48,5.8-12.97,8.82-19.41,.81-1.73,.78-3.17,.03-4.92-6.74-15.83-13.4-31.7-20.09-47.56-10.62-25.16-21.25-50.32-31.87-75.49-3.13-7.41-6.28-14.83-9.4-22.25-.73-1.72-1.36-3.49-2.07-5.32,1.18-1.14,2.49-.83,3.66-.83,11.53-.03,23.07-.02,34.6-.02,4.27,.01,8.54,.11,12.8-.03,2.25-.08,3.39,.73,4.16,2.87,3.97,10.99,8.09,21.92,12.14,32.88,7.3,19.69,14.58,39.38,21.88,59.07,.43,1.18,.91,2.34,1.37,3.5,1.76-.34,1.65-1.9,2.05-2.97,7.76-21.03,15.47-42.08,23.19-63.12,3.59-9.78,7.18-19.57,10.8-29.34,1.04-2.79,1.08-2.83,4.09-2.84,7.27-.04,14.54-.02,21.8-.02,7.75,0,15.49-.01,23.23,.02,1.38,0,2.81-.25,4.04,.39,.39,1.18-.21,2.01-.57,2.85Zm-436.16,37.09c-14.4-.51-25.59,5.72-31.84,18.85-6.7,14.09-6.17,28.46,.86,42.45,2.08,4.14,5.16,7.54,8.8,10.43,15.65,12.42,42.96,9.03,52.45-14.27,2.3-5.63,3.3-11.51,3.21-16.56,.06-8.49-.85-14.32-3.37-20-5.78-13.04-15.84-20.4-30.11-20.9Zm4.6,45.9c-.73,2.92-2.9,4.67-5.65,4.83-2.5,.15-4.74-1.26-5.79-3.98-1.87-4.84-1.89-9.82-.32-14.73,.87-2.72,2.99-4.04,5.72-4.06,2.66-.01,4.78,1.4,5.76,4.04,.93,2.52,1.19,5.18,1.23,8.41-.25,1.48-.46,3.52-.95,5.49Zm-268.62-25.09c-8.38-19.78-30.14-25.5-46.2-17.57-9,4.43-14.79,11.59-17.95,21.01-2.42,7.19-2.64,14.61-1.75,22.02,.8,6.66,2.95,12.96,7.07,18.37,7.78,10.23,18.17,14.97,30.96,13.84,7.94-.69,15.02-3.77,20.57-9.66,4.74-5.03,7.88-11,9.52-17.75,.94-3.88,1.16-7.8,1.1-12.09,.23-6.08-.83-12.28-3.32-18.17Zm-24.63,18.51c.01,2.78-.3,5.26-1.27,7.65-1.01,2.5-2.92,3.71-5.5,3.74-2.41,.02-4.28-1.19-5.24-3.42-2.23-5.15-2.31-10.4-.32-15.66,.96-2.54,2.97-3.58,5.55-3.66,2.69-.07,4.48,1.31,5.5,3.71,1.07,2.51,1.36,5.17,1.28,7.64Zm24.63-18.51c-8.38-19.78-30.14-25.5-46.2-17.57-9,4.43-14.79,11.59-17.95,21.01-2.42,7.19-2.64,14.61-1.75,22.02,.8,6.66,2.95,12.96,7.07,18.37,7.78,10.23,18.17,14.97,30.96,13.84,7.94-.69,15.02-3.77,20.57-9.66,4.74-5.03,7.88-11,9.52-17.75,.94-3.88,1.16-7.8,1.1-12.09,.23-6.08-.83-12.28-3.32-18.17Zm-24.63,18.51c.01,2.78-.3,5.26-1.27,7.65-1.01,2.5-2.92,3.71-5.5,3.74-2.41,.02-4.28-1.19-5.24-3.42-2.23-5.15-2.31-10.4-.32-15.66,.96-2.54,2.97-3.58,5.55-3.66,2.69-.07,4.48,1.31,5.5,3.71,1.07,2.51,1.36,5.17,1.28,7.64Zm318.76-18.42c-5.78-13.04-15.84-20.4-30.11-20.9-14.4-.51-25.59,5.72-31.84,18.85-6.7,14.09-6.17,28.46,.86,42.45,2.08,4.14,5.16,7.54,8.8,10.43,15.65,12.42,42.96,9.03,52.45-14.27,2.3-5.63,3.3-11.51,3.21-16.56,.06-8.49-.85-14.32-3.37-20Zm-25.51,25c-.73,2.92-2.9,4.67-5.65,4.83-2.5,.15-4.74-1.26-5.79-3.98-1.87-4.84-1.89-9.82-.32-14.73,.87-2.72,2.99-4.04,5.72-4.06,2.66-.01,4.78,1.4,5.76,4.04,.93,2.52,1.19,5.18,1.23,8.41-.25,1.48-.46,3.52-.95,5.49Zm25.51-25c-5.78-13.04-15.84-20.4-30.11-20.9-14.4-.51-25.59,5.72-31.84,18.85-6.7,14.09-6.17,28.46,.86,42.45,2.08,4.14,5.16,7.54,8.8,10.43,15.65,12.42,42.96,9.03,52.45-14.27,2.3-5.63,3.3-11.51,3.21-16.56,.06-8.49-.85-14.32-3.37-20Zm-25.51,25c-.73,2.92-2.9,4.67-5.65,4.83-2.5,.15-4.74-1.26-5.79-3.98-1.87-4.84-1.89-9.82-.32-14.73,.87-2.72,2.99-4.04,5.72-4.06,2.66-.01,4.78,1.4,5.76,4.04,.93,2.52,1.19,5.18,1.23,8.41-.25,1.48-.46,3.52-.95,5.49Zm-268.62-25.09c-8.38-19.78-30.14-25.5-46.2-17.57-9,4.43-14.79,11.59-17.95,21.01-2.42,7.19-2.64,14.61-1.75,22.02,.8,6.66,2.95,12.96,7.07,18.37,7.78,10.23,18.17,14.97,30.96,13.84,7.94-.69,15.02-3.77,20.57-9.66,4.74-5.03,7.88-11,9.52-17.75,.94-3.88,1.16-7.8,1.1-12.09,.23-6.08-.83-12.28-3.32-18.17Zm-24.63,18.51c.01,2.78-.3,5.26-1.27,7.65-1.01,2.5-2.92,3.71-5.5,3.74-2.41,.02-4.28-1.19-5.24-3.42-2.23-5.15-2.31-10.4-.32-15.66,.96-2.54,2.97-3.58,5.55-3.66,2.69-.07,4.48,1.31,5.5,3.71,1.07,2.51,1.36,5.17,1.28,7.64Zm24.63-18.51c-8.38-19.78-30.14-25.5-46.2-17.57-9,4.43-14.79,11.59-17.95,21.01-2.42,7.19-2.64,14.61-1.75,22.02,.8,6.66,2.95,12.96,7.07,18.37,7.78,10.23,18.17,14.97,30.96,13.84,7.94-.69,15.02-3.77,20.57-9.66,4.74-5.03,7.88-11,9.52-17.75,.94-3.88,1.16-7.8,1.1-12.09,.23-6.08-.83-12.28-3.32-18.17Zm-24.63,18.51c.01,2.78-.3,5.26-1.27,7.65-1.01,2.5-2.92,3.71-5.5,3.74-2.41,.02-4.28-1.19-5.24-3.42-2.23-5.15-2.31-10.4-.32-15.66,.96-2.54,2.97-3.58,5.55-3.66,2.69-.07,4.48,1.31,5.5,3.71,1.07,2.51,1.36,5.17,1.28,7.64Zm318.76-18.42c-5.78-13.04-15.84-20.4-30.11-20.9-14.4-.51-25.59,5.72-31.84,18.85-6.7,14.09-6.17,28.46,.86,42.45,2.08,4.14,5.16,7.54,8.8,10.43,15.65,12.42,42.96,9.03,52.45-14.27,2.3-5.63,3.3-11.51,3.21-16.56,.06-8.49-.85-14.32-3.37-20Zm-25.51,25c-.73,2.92-2.9,4.67-5.65,4.83-2.5,.15-4.74-1.26-5.79-3.98-1.87-4.84-1.89-9.82-.32-14.73,.87-2.72,2.99-4.04,5.72-4.06,2.66-.01,4.78,1.4,5.76,4.04,.93,2.52,1.19,5.18,1.23,8.41-.25,1.48-.46,3.52-.95,5.49Zm25.51-25c-5.78-13.04-15.84-20.4-30.11-20.9-14.4-.51-25.59,5.72-31.84,18.85-6.7,14.09-6.17,28.46,.86,42.45,2.08,4.14,5.16,7.54,8.8,10.43,15.65,12.42,42.96,9.03,52.45-14.27,2.3-5.63,3.3-11.51,3.21-16.56,.06-8.49-.85-14.32-3.37-20Zm-25.51,25c-.73,2.92-2.9,4.67-5.65,4.83-2.5,.15-4.74-1.26-5.79-3.98-1.87-4.84-1.89-9.82-.32-14.73,.87-2.72,2.99-4.04,5.72-4.06,2.66-.01,4.78,1.4,5.76,4.04,.93,2.52,1.19,5.18,1.23,8.41-.25,1.48-.46,3.52-.95,5.49Zm-268.62-25.09c-8.38-19.78-30.14-25.5-46.2-17.57-9,4.43-14.79,11.59-17.95,21.01-2.42,7.19-2.64,14.61-1.75,22.02,.8,6.66,2.95,12.96,7.07,18.37,7.78,10.23,18.17,14.97,30.96,13.84,7.94-.69,15.02-3.77,20.57-9.66,4.74-5.03,7.88-11,9.52-17.75,.94-3.88,1.16-7.8,1.1-12.09,.23-6.08-.83-12.28-3.32-18.17Zm-24.63,18.51c.01,2.78-.3,5.26-1.27,7.65-1.01,2.5-2.92,3.71-5.5,3.74-2.41,.02-4.28-1.19-5.24-3.42-2.23-5.15-2.31-10.4-.32-15.66,.96-2.54,2.97-3.58,5.55-3.66,2.69-.07,4.48,1.31,5.5,3.71,1.07,2.51,1.36,5.17,1.28,7.64Zm24.63-18.51c-8.38-19.78-30.14-25.5-46.2-17.57-9,4.43-14.79,11.59-17.95,21.01-2.42,7.19-2.64,14.61-1.75,22.02,.8,6.66,2.95,12.96,7.07,18.37,7.78,10.23,18.17,14.97,30.96,13.84,7.94-.69,15.02-3.77,20.57-9.66,4.74-5.03,7.88-11,9.52-17.75,.94-3.88,1.16-7.8,1.1-12.09,.23-6.08-.83-12.28-3.32-18.17Zm-24.63,18.51c.01,2.78-.3,5.26-1.27,7.65-1.01,2.5-2.92,3.71-5.5,3.74-2.41,.02-4.28-1.19-5.24-3.42-2.23-5.15-2.31-10.4-.32-15.66,.96-2.54,2.97-3.58,5.55-3.66,2.69-.07,4.48,1.31,5.5,3.71,1.07,2.51,1.36,5.17,1.28,7.64Zm318.76-18.42c-5.78-13.04-15.84-20.4-30.11-20.9-14.4-.51-25.59,5.72-31.84,18.85-6.7,14.09-6.17,28.46,.86,42.45,2.08,4.14,5.16,7.54,8.8,10.43,15.65,12.42,42.96,9.03,52.45-14.27,2.3-5.63,3.3-11.51,3.21-16.56,.06-8.49-.85-14.32-3.37-20Zm-25.51,25c-.73,2.92-2.9,4.67-5.65,4.83-2.5,.15-4.74-1.26-5.79-3.98-1.87-4.84-1.89-9.82-.32-14.73,.87-2.72,2.99-4.04,5.72-4.06,2.66-.01,4.78,1.4,5.76,4.04,.93,2.52,1.19,5.18,1.23,8.41-.25,1.48-.46,3.52-.95,5.49Zm25.51-25c-5.78-13.04-15.84-20.4-30.11-20.9-14.4-.51-25.59,5.72-31.84,18.85-6.7,14.09-6.17,28.46,.86,42.45,2.08,4.14,5.16,7.54,8.8,10.43,15.65,12.42,42.96,9.03,52.45-14.27,2.3-5.63,3.3-11.51,3.21-16.56,.06-8.49-.85-14.32-3.37-20Zm-25.51,25c-.73,2.92-2.9,4.67-5.65,4.83-2.5,.15-4.74-1.26-5.79-3.98-1.87-4.84-1.89-9.82-.32-14.73,.87-2.72,2.99-4.04,5.72-4.06,2.66-.01,4.78,1.4,5.76,4.04,.93,2.52,1.19,5.18,1.23,8.41-.25,1.48-.46,3.52-.95,5.49Zm-268.62-25.09c-8.38-19.78-30.14-25.5-46.2-17.57-9,4.43-14.79,11.59-17.95,21.01-2.42,7.19-2.64,14.61-1.75,22.02,.8,6.66,2.95,12.96,7.07,18.37,7.78,10.23,18.17,14.97,30.96,13.84,7.94-.69,15.02-3.77,20.57-9.66,4.74-5.03,7.88-11,9.52-17.75,.94-3.88,1.16-7.8,1.1-12.09,.23-6.08-.83-12.28-3.32-18.17Zm-24.63,18.51c.01,2.78-.3,5.26-1.27,7.65-1.01,2.5-2.92,3.71-5.5,3.74-2.41,.02-4.28-1.19-5.24-3.42-2.23-5.15-2.31-10.4-.32-15.66,.96-2.54,2.97-3.58,5.55-3.66,2.69-.07,4.48,1.31,5.5,3.71,1.07,2.51,1.36,5.17,1.28,7.64Zm318.76-18.42c-5.78-13.04-15.84-20.4-30.11-20.9-14.4-.51-25.59,5.72-31.84,18.85-6.7,14.09-6.17,28.46,.86,42.45,2.08,4.14,5.16,7.54,8.8,10.43,15.65,12.42,42.96,9.03,52.45-14.27,2.3-5.63,3.3-11.51,3.21-16.56,.06-8.49-.85-14.32-3.37-20Zm-25.51,25c-.73,2.92-2.9,4.67-5.65,4.83-2.5,.15-4.74-1.26-5.79-3.98-1.87-4.84-1.89-9.82-.32-14.73,.87-2.72,2.99-4.04,5.72-4.06,2.66-.01,4.78,1.4,5.76,4.04,.93,2.52,1.19,5.18,1.23,8.41-.25,1.48-.46,3.52-.95,5.49Zm25.51-25c-5.78-13.04-15.84-20.4-30.11-20.9-14.4-.51-25.59,5.72-31.84,18.85-6.7,14.09-6.17,28.46,.86,42.45,2.08,4.14,5.16,7.54,8.8,10.43,15.65,12.42,42.96,9.03,52.45-14.27,2.3-5.63,3.3-11.51,3.21-16.56,.06-8.49-.85-14.32-3.37-20Zm-25.51,25c-.73,2.92-2.9,4.67-5.65,4.83-2.5,.15-4.74-1.26-5.79-3.98-1.87-4.84-1.89-9.82-.32-14.73,.87-2.72,2.99-4.04,5.72-4.06,2.66-.01,4.78,1.4,5.76,4.04,.93,2.52,1.19,5.18,1.23,8.41-.25,1.48-.46,3.52-.95,5.49Zm25.51-25c-5.78-13.04-15.84-20.4-30.11-20.9-14.4-.51-25.59,5.72-31.84,18.85-6.7,14.09-6.17,28.46,.86,42.45,2.08,4.14,5.16,7.54,8.8,10.43,15.65,12.42,42.96,9.03,52.45-14.27,2.3-5.63,3.3-11.51,3.21-16.56,.06-8.49-.85-14.32-3.37-20Zm-25.51,25c-.73,2.92-2.9,4.67-5.65,4.83-2.5,.15-4.74-1.26-5.79-3.98-1.87-4.84-1.89-9.82-.32-14.73,.87-2.72,2.99-4.04,5.72-4.06,2.66-.01,4.78,1.4,5.76,4.04,.93,2.52,1.19,5.18,1.23,8.41-.25,1.48-.46,3.52-.95,5.49Zm25.51-25c-5.78-13.04-15.84-20.4-30.11-20.9-14.4-.51-25.59,5.72-31.84,18.85-6.7,14.09-6.17,28.46,.86,42.45,2.08,4.14,5.16,7.54,8.8,10.43,15.65,12.42,42.96,9.03,52.45-14.27,2.3-5.63,3.3-11.51,3.21-16.56,.06-8.49-.85-14.32-3.37-20Zm-25.51,25c-.73,2.92-2.9,4.67-5.65,4.83-2.5,.15-4.74-1.26-5.79-3.98-1.87-4.84-1.89-9.82-.32-14.73,.87-2.72,2.99-4.04,5.72-4.06,2.66-.01,4.78,1.4,5.76,4.04,.93,2.52,1.19,5.18,1.23,8.41-.25,1.48-.46,3.52-.95,5.49Z"/></g></g></g></svg>