<?xml version="1.0" encoding="UTF-8"?><svg xmlns="http://www.w3.org/2000/svg" viewBox="0 0 817.1 297.65"><g id="a"/><g id="b"><g id="c"><g><path d="M164.76,65.38c0-.79,.02-1.58,0-2.37-.08-3.08-.2-3.2-3.2-3.29-.64-.02-1.27-.01-1.9-.01-11.7,0-23.4,0-35.09,.01-.79,0-1.59-.03-2.37,.01-2.1,.1-2.53,.46-2.55,2.51-.06,4.59,0,9.17-.05,13.75-.01,1.38,.29,2.8-.59,4.68-.82-1-1.33-1.59-1.8-2.21-6.17-8.21-14.23-13.87-23.83-17.27-10.45-3.71-21.17-4.75-32.21-3.22-14.41,2-26.84,7.9-37.31,18-10.05,9.7-16.45,21.53-20.11,34.88C.3,123.47-.76,136.29,.54,149.35c.81,8.23,2.34,16.25,5.09,24.04,4.62,13.09,11.96,24.38,22.79,33.18,12.63,10.29,27.21,15.1,43.47,14.72,18.54-.43,34.15-7.05,45.72-22.01,.42-.54,.76-1.46,2.1-.76-.11,9-.13,18.16-.4,27.31-.12,3.96-1.24,7.78-2.72,11.48-3.63,9.05-10.3,14.61-19.67,16.89-7.5,1.83-15.03,1.67-22.5-.35-9.05-2.45-16-7.38-19.48-16.42-.06-.15-.11-.3-.16-.45-.28-.83-.85-1.29-1.73-1.33-.79-.03-1.58-.04-2.37-.04-13.44-.01-26.88-.01-40.31,0-.95,0-1.9,0-2.84,.1-.71,.08-1.11,.61-1.12,1.3-.01,.79,.03,1.59,.16,2.36,2.22,13.1,7.5,24.72,16.71,34.43,9.17,9.66,20.47,15.73,33.09,19.5,8.83,2.64,17.88,3.81,27.08,4.22,11.13,.49,22.13-.32,32.84-3.38,22.63-6.44,38.39-20.53,46.83-42.64,1.14-3,1.68-6,1.68-9.23-.05-58.96-.04-117.92-.04-176.89Zm-46.31,85.75c-1.64,6.75-4.78,12.72-9.52,17.75-5.55,5.89-12.63,8.97-20.57,9.66-12.79,1.13-23.18-3.61-30.96-13.84-4.12-5.41-6.27-11.71-7.07-18.37-.89-7.41-.67-14.83,1.75-22.02,3.16-9.42,8.95-16.58,17.95-21.01,16.06-7.93,37.82-2.21,46.2,17.57,2.49,5.89,3.55,12.09,3.32,18.17,.06,4.29-.16,8.21-1.1,12.09Z"/><path d="M291.85,59.73c.29,2.22-.6,3.91-1.95,5.59-8.52,10.61-14.48,22.56-18.44,35.54-.78,2.57-1.43,5.18-2.08,7.78-.26,1.06-.83,1.6-1.91,1.76-1.25,.19-2.47,.51-3.71,.78-12.04,2.65-18.73,10.37-21.05,22.23-.83,4.21-1,8.46-1,12.74,.01,22.29,.02,44.58-.01,66.86-.01,7.13,.89,6.18-6.36,6.2-12.65,.05-25.3,.01-37.94,.02-4.77,0-4.74,.22-4.74-4.6,.02-29.09,.01-58.17,.01-87.26v-61.17c0-1.27-.02-2.53,.02-3.79,.07-2.33,.33-2.6,2.85-2.63,3.32-.05,6.64-.02,9.95-.02h30.35c1.27,0,2.53-.01,3.8,.04,1.61,.06,1.98,.41,2.04,1.91,.05,1.11,.03,2.22,.03,3.32,0,5.69-.02,11.38,.02,17.07,.01,.86-.4,1.86,.7,2.78,1.36-1.68,2.7-3.37,4.09-5.02,7.59-9.04,16.81-15.72,28.15-19.27,5-1.56,10.1-2.59,15.37-2.49,1.29,.02,1.66,.46,1.81,1.63Z"/><path d="M334.58,20.92C334.31,9.82,343.49-.07,355.58,0c11.88,.07,20.99,9.68,20.98,21.03,0,10.32-7.79,20.81-21.1,20.89-12.61,.07-21.22-10.13-20.88-21Z"/><path d="M391.77,21.23c.01-12.99,10.25-21.49,20.77-21.16,9.6-.46,21.32,6.57,21.27,21.12-.05,13.38-10.71,20.65-20.76,20.76-11.84,.12-21.29-8.99-21.28-20.72Z"/><path d="M462.79,122.42c0-2.91-.57-5.6-1.53-8.3-5.91-16.5-11.76-33.03-17.62-49.54-.37-1.04-.71-2.1-1.13-3.12-.37-.92-.96-1.63-2.08-1.63-8.37,0-16.75,0-25.12,.04-.86,0-1.43,.6-1.48,1.52-.04,.79-.08,1.58-.08,2.37-.01,4.9,0,9.8-.03,14.7,0,.7,.26,1.62-.98,1.94-.45-.55-.96-1.13-1.42-1.74-6.41-8.42-14.71-14.25-24.69-17.64-10.02-3.42-20.29-4.42-30.83-3.04-14.59,1.9-27.21,7.81-37.8,18.02-10.18,9.81-16.63,21.79-20.28,35.32-3.27,12.15-4.29,24.51-3.19,37.09,.95,10.97,3.27,21.54,7.81,31.57,6.57,14.55,16.48,26.15,30.68,33.73,14.53,7.76,29.99,9.51,45.99,6.18,13.29-2.77,24.4-9.32,32.7-20.27,.35-.47,.75-.91,1.77-2.14,.15,1.65,.25,2.27,.25,2.89,.02,4.74,.01,9.48,.03,14.22,0,1.1,.05,2.21,.17,3.31,.08,.66,.54,1.15,1.24,1.21,1.09,.09,2.2,.11,3.3,.11,13.12,.01,26.24,.01,39.36,.01,5.21-.01,4.92,.34,4.92-4.83,0-30.66-.03-61.32,.04-91.98Zm-52.27,35.1c-9.49,23.3-36.8,26.69-52.45,14.27-3.64-2.89-6.72-6.29-8.8-10.43-7.03-13.99-7.56-28.36-.86-42.45,6.25-13.13,17.44-19.36,31.84-18.85,14.27,.5,24.33,7.86,30.11,20.9,2.52,5.68,3.43,11.51,3.37,20,.09,5.05-.91,10.93-3.21,16.56Z"/><path d="M626.23,107.15c.96,2.22,.94,4.11,.15,6.33-12.17,34.04-24.27,68.1-36.39,102.16-.05,.15-.09,.3-.14,.45-1.24,3.6-1.42,3.12-4.33,3.12-17.85,.02-35.71,.02-53.56,.01-3.78,0-3.47,.24-4.72-3.23-3.74-10.4-7.43-20.82-11.13-31.23-14.17-39.87-28.34-79.73-42.48-119.6-.57-1.61-1.49-3.15-1.35-4.88,1.14-.72,2.28-.51,3.37-.51,14.85-.01,29.7-.01,44.55-.01,4.37,0,3.83-.08,5.06,3.97,10.5,34.42,20.97,68.86,31.48,103.28,.48,1.6,.68,3.38,2.15,5.18,.64-1.85,1.17-3.24,1.6-4.66,10.41-34.12,20.79-68.25,31.24-102.36,1.86-6.07,.46-5.36,7.32-5.4,1.89-.02,3.79-.01,5.68,.03,1.05,.02,1.72,.55,2.13,1.55,1.51,3.64,3.09,7.26,4.62,10.9,4.9,11.64,9.74,23.31,14.75,34.9Z"/><path d="M816.98,60.12c.39,1.18-.21,2.01-.57,2.85-10.88,25.57-21.79,51.13-32.68,76.69-12.56,29.49-25.1,58.99-37.67,88.47-8.97,21.06-17.99,42.11-26.98,63.16-.31,.73-.62,1.45-.94,2.18-.43,.97-1.22,1.39-2.25,1.42-.95,.02-1.89,.04-2.84,.04-14.38,.01-28.76,.01-43.14,0-1.1,0-2.21-.04-3.3-.15-.78-.08-1.05-.72-.85-1.37,.33-1.05,.79-2.06,1.24-3.07,8.24-18.28,16.49-36.55,24.75-54.83,2.92-6.48,5.8-12.97,8.82-19.41,.81-1.73,.78-3.17,.03-4.92-6.74-15.83-13.4-31.7-20.09-47.56-10.62-25.16-21.25-50.32-31.87-75.49-3.13-7.41-6.28-14.83-9.4-22.25-.73-1.72-1.36-3.49-2.07-5.32,1.18-1.14,2.49-.83,3.66-.83,11.53-.03,23.07-.02,34.6-.02,4.27,.01,8.54,.11,12.8-.03,2.25-.08,3.39,.73,4.16,2.87,3.97,10.99,8.09,21.92,12.14,32.88,7.3,19.69,14.58,39.38,21.88,59.07,.43,1.18,.91,2.34,1.37,3.5,1.76-.34,1.65-1.9,2.05-2.97,7.76-21.03,15.47-42.08,23.19-63.12,3.59-9.78,7.18-19.57,10.8-29.34,1.04-2.79,1.08-2.83,4.09-2.84,7.27-.04,14.54-.02,21.8-.02,7.75,0,15.49-.01,23.23,.02,1.38,0,2.81-.25,4.04,.39Z"/></g></g></g></svg>