<?xml version="1.0" encoding="UTF-8"?><svg xmlns="http://www.w3.org/2000/svg" viewBox="0 0 350 350"><defs><style>.d{fill:#fff;}</style></defs><g id="a"/><g id="b"><g id="c"><g><circle cx="175" cy="175" r="175"/><path class="d" d="M195.27,138.07c-6.5-15.34-23.37-19.77-35.83-13.62-6.98,3.43-11.47,8.99-13.92,16.29-1.87,5.58-2.04,11.33-1.35,17.07,.62,5.17,2.28,10.05,5.48,14.25,6.03,7.93,14.09,11.61,24.01,10.73,6.15-.53,11.64-2.92,15.95-7.49,3.67-3.9,6.11-8.53,7.38-13.76,.73-3.01,.9-6.05,.85-9.38,.18-4.71-.64-9.52-2.57-14.09Zm-19.1,14.36c.01,2.15-.23,4.07-.99,5.93-.78,1.94-2.26,2.87-4.26,2.9-1.87,.01-3.32-.93-4.06-2.65-1.73-4-1.8-8.07-.25-12.15,.74-1.97,2.3-2.77,4.3-2.84,2.09-.05,3.47,1.02,4.27,2.88,.83,1.95,1.05,4.01,.99,5.93Zm19.1-14.36c-6.5-15.34-23.37-19.77-35.83-13.62-6.98,3.43-11.47,8.99-13.92,16.29-1.87,5.58-2.04,11.33-1.35,17.07,.62,5.17,2.28,10.05,5.48,14.25,6.03,7.93,14.09,11.61,24.01,10.73,6.15-.53,11.64-2.92,15.95-7.49,3.67-3.9,6.11-8.53,7.38-13.76,.73-3.01,.9-6.05,.85-9.38,.18-4.71-.64-9.52-2.57-14.09Zm-19.1,14.36c.01,2.15-.23,4.07-.99,5.93-.78,1.94-2.26,2.87-4.26,2.9-1.87,.01-3.32-.93-4.06-2.65-1.73-4-1.8-8.07-.25-12.15,.74-1.97,2.3-2.77,4.3-2.84,2.09-.05,3.47,1.02,4.27,2.88,.83,1.95,1.05,4.01,.99,5.93Zm19.1-14.36c-6.5-15.34-23.37-19.77-35.83-13.62-6.98,3.43-11.47,8.99-13.92,16.29-1.87,5.58-2.04,11.33-1.35,17.07,.62,5.17,2.28,10.05,5.48,14.25,6.03,7.93,14.09,11.61,24.01,10.73,6.15-.53,11.64-2.92,15.95-7.49,3.67-3.9,6.11-8.53,7.38-13.76,.73-3.01,.9-6.05,.85-9.38,.18-4.71-.64-9.52-2.57-14.09Zm-19.1,14.36c.01,2.15-.23,4.07-.99,5.93-.78,1.94-2.26,2.87-4.26,2.9-1.87,.01-3.32-.93-4.06-2.65-1.73-4-1.8-8.07-.25-12.15,.74-1.97,2.3-2.77,4.3-2.84,2.09-.05,3.47,1.02,4.27,2.88,.83,1.95,1.05,4.01,.99,5.93Zm19.1-14.36c-6.5-15.34-23.37-19.77-35.83-13.62-6.98,3.43-11.47,8.99-13.92,16.29-1.87,5.58-2.04,11.33-1.35,17.07,.62,5.17,2.28,10.05,5.48,14.25,6.03,7.93,14.09,11.61,24.01,10.73,6.15-.53,11.64-2.92,15.95-7.49,3.67-3.9,6.11-8.53,7.38-13.76,.73-3.01,.9-6.05,.85-9.38,.18-4.71-.64-9.52-2.57-14.09Zm-19.1,14.36c.01,2.15-.23,4.07-.99,5.93-.78,1.94-2.26,2.87-4.26,2.9-1.87,.01-3.32-.93-4.06-2.65-1.73-4-1.8-8.07-.25-12.15,.74-1.97,2.3-2.77,4.3-2.84,2.09-.05,3.47,1.02,4.27,2.88,.83,1.95,1.05,4.01,.99,5.93Zm19.1-14.36c-6.5-15.34-23.37-19.77-35.83-13.62-6.98,3.43-11.47,8.99-13.92,16.29-1.87,5.58-2.04,11.33-1.35,17.07,.62,5.17,2.28,10.05,5.48,14.25,6.03,7.93,14.09,11.61,24.01,10.73,6.15-.53,11.64-2.92,15.95-7.49,3.67-3.9,6.11-8.53,7.38-13.76,.73-3.01,.9-6.05,.85-9.38,.18-4.71-.64-9.52-2.57-14.09Zm-19.1,14.36c.01,2.15-.23,4.07-.99,5.93-.78,1.94-2.26,2.87-4.26,2.9-1.87,.01-3.32-.93-4.06-2.65-1.73-4-1.8-8.07-.25-12.15,.74-1.97,2.3-2.77,4.3-2.84,2.09-.05,3.47,1.02,4.27,2.88,.83,1.95,1.05,4.01,.99,5.93Zm19.1-14.36c-6.5-15.34-23.37-19.77-35.83-13.62-6.98,3.43-11.47,8.99-13.92,16.29-1.87,5.58-2.04,11.33-1.35,17.07,.62,5.17,2.28,10.05,5.48,14.25,6.03,7.93,14.09,11.61,24.01,10.73,6.15-.53,11.64-2.92,15.95-7.49,3.67-3.9,6.11-8.53,7.38-13.76,.73-3.01,.9-6.05,.85-9.38,.18-4.71-.64-9.52-2.57-14.09Zm-19.1,14.36c.01,2.15-.23,4.07-.99,5.93-.78,1.94-2.26,2.87-4.26,2.9-1.87,.01-3.32-.93-4.06-2.65-1.73-4-1.8-8.07-.25-12.15,.74-1.97,2.3-2.77,4.3-2.84,2.09-.05,3.47,1.02,4.27,2.88,.83,1.95,1.05,4.01,.99,5.93Zm19.1-14.36c-6.5-15.34-23.37-19.77-35.83-13.62-6.98,3.43-11.47,8.99-13.92,16.29-1.87,5.58-2.04,11.33-1.35,17.07,.62,5.17,2.28,10.05,5.48,14.25,6.03,7.93,14.09,11.61,24.01,10.73,6.15-.53,11.64-2.92,15.95-7.49,3.67-3.9,6.11-8.53,7.38-13.76,.73-3.01,.9-6.05,.85-9.38,.18-4.71-.64-9.52-2.57-14.09Zm-19.1,14.36c.01,2.15-.23,4.07-.99,5.93-.78,1.94-2.26,2.87-4.26,2.9-1.87,.01-3.32-.93-4.06-2.65-1.73-4-1.8-8.07-.25-12.15,.74-1.97,2.3-2.77,4.3-2.84,2.09-.05,3.47,1.02,4.27,2.88,.83,1.95,1.05,4.01,.99,5.93Zm19.1-14.36c-6.5-15.34-23.37-19.77-35.83-13.62-6.98,3.43-11.47,8.99-13.92,16.29-1.87,5.58-2.04,11.33-1.35,17.07,.62,5.17,2.28,10.05,5.48,14.25,6.03,7.93,14.09,11.61,24.01,10.73,6.15-.53,11.64-2.92,15.95-7.49,3.67-3.9,6.11-8.53,7.38-13.76,.73-3.01,.9-6.05,.85-9.38,.18-4.71-.64-9.52-2.57-14.09Zm-19.1,14.36c.01,2.15-.23,4.07-.99,5.93-.78,1.94-2.26,2.87-4.26,2.9-1.87,.01-3.32-.93-4.06-2.65-1.73-4-1.8-8.07-.25-12.15,.74-1.97,2.3-2.77,4.3-2.84,2.09-.05,3.47,1.02,4.27,2.88,.83,1.95,1.05,4.01,.99,5.93Zm3.22-83.65c-1.97,0-3.89-.17-5.83-.5-8.39-1.45-16.81-1.62-25.24-.33-19.04,2.92-34.49,12.03-46.51,27-8.76,10.93-13.97,23.5-16.64,37.19-1.43,7.37-1.76,14.82-1.69,22.31,.14,17.41,4.37,33.67,13.57,48.55,.37,.59,1.16,1.2,.8,1.91-.46,.94-1.52,.45-2.31,.47-2.57,.06-5.15,.01-7.72,.03-.72,.01-1.48-.15-2.21,.52,.02,.37,.02,.84,.07,1.3,.63,5.96,1.21,11.94,1.93,17.9,.54,4.5,.99,9,2.05,13.43,3.48,14.59,10.55,27.08,21.78,37.1,10.37,9.27,22.56,15,35.98,18.28,9.34,2.29,18.82,3.07,28.42,2.98,9.01-.09,17.83-1.24,26.45-3.79,16.25-4.79,29.66-13.75,39.78-27.46,5.67-7.67,9.62-16.18,12.23-25.34,.08-.27,.15-.54,.23-.81V68.78c-25.04-.01-50.09-.01-75.14,0Zm52.24,170.58c-6.55,17.15-18.77,28.07-36.32,33.07-8.3,2.37-16.83,3-25.46,2.62-7.13-.32-14.15-1.23-21-3.27-9.79-2.93-18.55-7.63-25.66-15.12-7.14-7.53-11.23-16.54-12.96-26.7-.1-.6-.13-1.22-.12-1.83,.01-.54,.32-.95,.87-1.01,.73-.08,1.46-.08,2.2-.08h31.26c.61,0,1.22,.01,1.84,.03,.68,.04,1.12,.39,1.34,1.04,.04,.11,.08,.23,.12,.34,2.7,7.01,8.09,10.84,15.11,12.74,5.79,1.56,11.63,1.69,17.44,.27,7.27-1.77,12.44-6.08,15.26-13.1,1.14-2.87,2.01-5.83,2.11-8.9,.2-7.1,.22-14.2,.31-21.18-1.04-.54-1.31,.17-1.63,.59-8.97,11.6-21.08,16.74-35.46,17.07-12.6,.29-23.91-3.44-33.7-11.41-8.4-6.83-14.09-15.58-17.67-25.73-2.14-6.04-3.32-12.26-3.95-18.64-1.01-10.13-.19-20.07,2.49-29.86,2.84-10.35,7.8-19.52,15.59-27.04,8.12-7.84,17.76-12.41,28.93-13.96,8.56-1.19,16.88-.38,24.98,2.5,7.44,2.63,13.69,7.02,18.48,13.39,.36,.48,.76,.94,1.39,1.71,.68-1.46,.45-2.56,.46-3.63,.04-3.55-.01-7.1,.04-10.66,.01-1.59,.35-1.87,1.98-1.95,.6-.03,1.22,0,1.83,0,9.07,0,18.14,0,27.21,0,.49,0,.98-.01,1.48,0,2.32,.07,2.42,.16,2.48,2.55,0,.61,0,1.22,0,1.83,0,45.73-.01,91.45,.03,137.17,0,2.5-.42,4.83-1.3,7.15Zm-72.19-114.91c-6.98,3.43-11.47,8.99-13.92,16.29-1.87,5.58-2.04,11.33-1.35,17.07,.62,5.17,2.28,10.05,5.48,14.25,6.03,7.93,14.09,11.61,24.01,10.73,6.15-.53,11.64-2.92,15.95-7.49,3.67-3.9,6.11-8.53,7.38-13.76,.73-3.01,.9-6.05,.85-9.38,.18-4.71-.64-9.52-2.57-14.09-6.5-15.34-23.37-19.77-35.83-13.62Zm16.73,27.98c.01,2.15-.23,4.07-.99,5.93-.78,1.94-2.26,2.87-4.26,2.9-1.87,.01-3.32-.93-4.06-2.65-1.73-4-1.8-8.07-.25-12.15,.74-1.97,2.3-2.77,4.3-2.84,2.09-.05,3.47,1.02,4.27,2.88,.83,1.95,1.05,4.01,.99,5.93Zm19.1-14.36c-6.5-15.34-23.37-19.77-35.83-13.62-6.98,3.43-11.47,8.99-13.92,16.29-1.87,5.58-2.04,11.33-1.35,17.07,.62,5.17,2.28,10.05,5.48,14.25,6.03,7.93,14.09,11.61,24.01,10.73,6.15-.53,11.64-2.92,15.95-7.49,3.67-3.9,6.11-8.53,7.38-13.76,.73-3.01,.9-6.05,.85-9.38,.18-4.71-.64-9.52-2.57-14.09Zm-19.1,14.36c.01,2.15-.23,4.07-.99,5.93-.78,1.94-2.26,2.87-4.26,2.9-1.87,.01-3.32-.93-4.06-2.65-1.73-4-1.8-8.07-.25-12.15,.74-1.97,2.3-2.77,4.3-2.84,2.09-.05,3.47,1.02,4.27,2.88,.83,1.95,1.05,4.01,.99,5.93Zm19.1-14.36c-6.5-15.34-23.37-19.77-35.83-13.62-6.98,3.43-11.47,8.99-13.92,16.29-1.87,5.58-2.04,11.33-1.35,17.07,.62,5.17,2.28,10.05,5.48,14.25,6.03,7.93,14.09,11.61,24.01,10.73,6.15-.53,11.64-2.92,15.95-7.49,3.67-3.9,6.11-8.53,7.38-13.76,.73-3.01,.9-6.05,.85-9.38,.18-4.71-.64-9.52-2.57-14.09Zm-19.1,14.36c.01,2.15-.23,4.07-.99,5.93-.78,1.94-2.26,2.87-4.26,2.9-1.87,.01-3.32-.93-4.06-2.65-1.73-4-1.8-8.07-.25-12.15,.74-1.97,2.3-2.77,4.3-2.84,2.09-.05,3.47,1.02,4.27,2.88,.83,1.95,1.05,4.01,.99,5.93Zm19.1-14.36c-6.5-15.34-23.37-19.77-35.83-13.62-6.98,3.43-11.47,8.99-13.92,16.29-1.87,5.58-2.04,11.33-1.35,17.07,.62,5.17,2.28,10.05,5.48,14.25,6.03,7.93,14.09,11.61,24.01,10.73,6.15-.53,11.64-2.92,15.95-7.49,3.67-3.9,6.11-8.53,7.38-13.76,.73-3.01,.9-6.05,.85-9.38,.18-4.71-.64-9.52-2.57-14.09Zm-19.1,14.36c.01,2.15-.23,4.07-.99,5.93-.78,1.94-2.26,2.87-4.26,2.9-1.87,.01-3.32-.93-4.06-2.65-1.73-4-1.8-8.07-.25-12.15,.74-1.97,2.3-2.77,4.3-2.84,2.09-.05,3.47,1.02,4.27,2.88,.83,1.95,1.05,4.01,.99,5.93Zm19.1-14.36c-6.5-15.34-23.37-19.77-35.83-13.62-6.98,3.43-11.47,8.99-13.92,16.29-1.87,5.58-2.04,11.33-1.35,17.07,.62,5.17,2.28,10.05,5.48,14.25,6.03,7.93,14.09,11.61,24.01,10.73,6.15-.53,11.64-2.92,15.95-7.49,3.67-3.9,6.11-8.53,7.38-13.76,.73-3.01,.9-6.05,.85-9.38,.18-4.71-.64-9.52-2.57-14.09Zm-19.1,14.36c.01,2.15-.23,4.07-.99,5.93-.78,1.94-2.26,2.87-4.26,2.9-1.87,.01-3.32-.93-4.06-2.65-1.73-4-1.8-8.07-.25-12.15,.74-1.97,2.3-2.77,4.3-2.84,2.09-.05,3.47,1.02,4.27,2.88,.83,1.95,1.05,4.01,.99,5.93Zm19.1-14.36c-6.5-15.34-23.37-19.77-35.83-13.62-6.98,3.43-11.47,8.99-13.92,16.29-1.87,5.58-2.04,11.33-1.35,17.07,.62,5.17,2.28,10.05,5.48,14.25,6.03,7.93,14.09,11.61,24.01,10.73,6.15-.53,11.64-2.92,15.95-7.49,3.67-3.9,6.11-8.53,7.38-13.76,.73-3.01,.9-6.05,.85-9.38,.18-4.71-.64-9.52-2.57-14.09Zm-19.1,14.36c.01,2.15-.23,4.07-.99,5.93-.78,1.94-2.26,2.87-4.26,2.9-1.87,.01-3.32-.93-4.06-2.65-1.73-4-1.8-8.07-.25-12.15,.74-1.97,2.3-2.77,4.3-2.84,2.09-.05,3.47,1.02,4.27,2.88,.83,1.95,1.05,4.01,.99,5.93Zm19.1-14.36c-6.5-15.34-23.37-19.77-35.83-13.62-6.98,3.43-11.47,8.99-13.92,16.29-1.87,5.58-2.04,11.33-1.35,17.07,.62,5.17,2.28,10.05,5.48,14.25,6.03,7.93,14.09,11.61,24.01,10.73,6.15-.53,11.64-2.92,15.95-7.49,3.67-3.9,6.11-8.53,7.38-13.76,.73-3.01,.9-6.05,.85-9.38,.18-4.71-.64-9.52-2.57-14.09Zm-19.1,14.36c.01,2.15-.23,4.07-.99,5.93-.78,1.94-2.26,2.87-4.26,2.9-1.87,.01-3.32-.93-4.06-2.65-1.73-4-1.8-8.07-.25-12.15,.74-1.97,2.3-2.77,4.3-2.84,2.09-.05,3.47,1.02,4.27,2.88,.83,1.95,1.05,4.01,.99,5.93Z"/></g></g></g></svg>