<?xml version="1.0" encoding="UTF-8"?><svg xmlns="http://www.w3.org/2000/svg" viewBox="0 0 350 350"><g id="a"/><g id="b"><g id="c"><g><path d="M175.18,146.5c.83,1.95,1.05,4.01,.99,5.93,.01,2.15-.23,4.07-.99,5.93-.78,1.94-2.26,2.87-4.26,2.9-1.87,.01-3.32-.93-4.06-2.65-1.73-4-1.8-8.07-.25-12.15,.74-1.97,2.3-2.77,4.3-2.84,2.09-.05,3.47,1.02,4.27,2.88Z"/><path d="M232.9,95.04c0-.61,0-1.22,0-1.83-.06-2.39-.16-2.48-2.48-2.55-.5-.02-.99,0-1.48,0-9.07,0-18.14,0-27.21,0-.61,0-1.23-.03-1.83,0-1.63,.08-1.97,.36-1.98,1.95-.05,3.56,0,7.11-.04,10.66-.01,1.07,.22,2.17-.46,3.63-.63-.77-1.03-1.23-1.39-1.71-4.79-6.37-11.04-10.76-18.48-13.39-8.1-2.88-16.42-3.69-24.98-2.5-11.17,1.55-20.81,6.12-28.93,13.96-7.79,7.52-12.75,16.69-15.59,27.04-2.68,9.79-3.5,19.73-2.49,29.86,.63,6.38,1.81,12.6,3.95,18.64,3.58,10.15,9.27,18.9,17.67,25.73,9.79,7.97,21.1,11.7,33.7,11.41,14.38-.33,26.49-5.47,35.46-17.07,.32-.42,.59-1.13,1.63-.59-.09,6.98-.11,14.08-.31,21.18-.1,3.07-.97,6.03-2.11,8.9-2.82,7.02-7.99,11.33-15.26,13.1-5.81,1.42-11.65,1.29-17.44-.27-7.02-1.9-12.41-5.73-15.11-12.74-.04-.11-.08-.23-.12-.34-.22-.65-.66-1-1.34-1.04-.62-.02-1.23-.03-1.84-.03h-31.26c-.74,0-1.47,0-2.2,.08-.55,.06-.86,.47-.87,1.01-.01,.61,.02,1.23,.12,1.83,1.73,10.16,5.82,19.17,12.96,26.7,7.11,7.49,15.87,12.19,25.66,15.12,6.85,2.04,13.87,2.95,21,3.27,8.63,.38,17.16-.25,25.46-2.62,17.55-5,29.77-15.92,36.32-33.07,.88-2.32,1.3-4.65,1.3-7.15-.04-45.72-.03-91.44-.03-137.17Zm-35.06,57.12c.05,3.33-.12,6.37-.85,9.38-1.27,5.23-3.71,9.86-7.38,13.76-4.31,4.57-9.8,6.96-15.95,7.49-9.92,.88-17.98-2.8-24.01-10.73-3.2-4.2-4.86-9.08-5.48-14.25-.69-5.74-.52-11.49,1.35-17.07,2.45-7.3,6.94-12.86,13.92-16.29,12.46-6.15,29.33-1.72,35.83,13.62,1.93,4.57,2.75,9.38,2.57,14.09Z"/><path d="M175,0C78.35,0,0,78.35,0,175s78.35,175,175,175,175-78.35,175-175S271.65,0,175,0Zm79.53,239.52c-.08,.27-.15,.54-.23,.81-2.61,9.16-6.56,17.67-12.23,25.34-10.12,13.71-23.53,22.67-39.78,27.46-8.62,2.55-17.44,3.7-26.45,3.79-9.6,.09-19.08-.69-28.42-2.98-13.42-3.28-25.61-9.01-35.98-18.28-11.23-10.02-18.3-22.51-21.78-37.1-1.06-4.43-1.51-8.93-2.05-13.43-.72-5.96-1.3-11.94-1.93-17.9-.05-.46-.05-.93-.07-1.3,.73-.67,1.49-.51,2.21-.52,2.57-.02,5.15,.03,7.72-.03,.79-.02,1.85,.47,2.31-.47,.36-.71-.43-1.32-.8-1.91-9.2-14.88-13.43-31.14-13.57-48.55-.07-7.49,.26-14.94,1.69-22.31,2.67-13.69,7.88-26.26,16.64-37.19,12.02-14.97,27.47-24.08,46.51-27,8.43-1.29,16.85-1.12,25.24,.33,1.94,.33,3.86,.5,5.83,.5,25.05-.01,50.1-.01,75.14,0V239.52Z"/></g></g></g></svg>