<?xml version="1.0" encoding="UTF-8"?><svg xmlns="http://www.w3.org/2000/svg" viewBox="0 0 350 350"><g id="a"/><g id="b"><g id="c"><g><path d="M212.19,136.52c.06,4.29-.16,8.21-1.1,12.09-1.64,6.75-4.78,12.72-9.52,17.75-5.55,5.89-12.63,8.97-20.57,9.66-12.79,1.13-23.18-3.61-30.96-13.84-4.12-5.41-6.27-11.71-7.07-18.37-.89-7.41-.67-14.83,1.75-22.02,3.16-9.42,8.95-16.58,17.95-21.01,16.06-7.93,37.82-2.21,46.2,17.57,2.49,5.89,3.55,12.09,3.32,18.17Z"/><path d="M0,0V350H350V0H0ZM255.76,248.98c-8.44,22.11-24.2,36.2-46.83,42.64-10.71,3.06-21.71,3.87-32.84,3.38-9.2-.41-18.25-1.58-27.08-4.22-12.62-3.77-23.92-9.84-33.09-19.5-9.21-9.71-14.49-21.33-16.71-34.43-.13-.77-.17-1.57-.16-2.36,.01-.69,.41-1.22,1.12-1.3,.94-.1,1.89-.1,2.84-.1,13.43-.01,26.87-.01,40.31,0,.79,0,1.58,0,2.37,.04,.88,.04,1.45,.5,1.73,1.33,.05,.15,.1,.3,.16,.45,3.48,9.04,10.43,13.97,19.48,16.42,7.47,2.02,15,2.18,22.5,.35,9.37-2.28,16.04-7.84,19.67-16.89,1.48-3.7,2.6-7.52,2.72-11.48,.27-9.15,.29-18.31,.4-27.31-1.34-.7-1.68,.22-2.1,.76-11.57,14.96-27.18,21.58-45.72,22.01-16.26,.38-30.84-4.43-43.47-14.72-10.83-8.8-18.17-20.09-22.79-33.18-2.75-7.79-4.28-15.81-5.09-24.04-1.3-13.06-.24-25.88,3.21-38.5,3.66-13.35,10.06-25.18,20.11-34.88,10.47-10.1,22.9-16,37.31-18,11.04-1.53,21.76-.49,32.21,3.22,9.6,3.4,17.66,9.06,23.83,17.27,.47,.62,.98,1.21,1.8,2.21,.88-1.88,.58-3.3,.59-4.68,.05-4.58-.01-9.16,.05-13.75,.02-2.05,.45-2.41,2.55-2.51,.78-.04,1.58-.01,2.37-.01,11.69-.01,23.39-.01,35.09-.01,.63,0,1.26-.01,1.9,.01,3,.09,3.12,.21,3.2,3.29,.02,.79,0,1.58,0,2.37,0,58.97-.01,117.93,.04,176.89,0,3.23-.54,6.23-1.68,9.23Z"/></g></g></g></svg>