<?xml version="1.0" encoding="UTF-8"?><svg xmlns="http://www.w3.org/2000/svg" viewBox="0 0 350 350"><defs><style>.d{fill:#fff;}</style></defs><g id="a"/><g id="b"><g id="c"><g><circle cx="175" cy="175" r="175"/><path class="d" d="M179.39,68.78c-1.97,0-3.89-.17-5.83-.5-8.39-1.45-16.81-1.62-25.24-.33-19.04,2.92-34.49,12.03-46.51,27-8.76,10.93-13.97,23.5-16.64,37.19-1.43,7.37-1.76,14.82-1.69,22.31,.14,17.41,4.37,33.67,13.57,48.55,.37,.59,1.16,1.2,.8,1.91-.46,.94-1.52,.45-2.31,.47-2.57,.06-5.15,.01-7.72,.03-.72,.01-1.48-.15-2.21,.52,.02,.37,.02,.84,.07,1.3,.63,5.96,1.21,11.94,1.93,17.9,.54,4.5,.99,9,2.05,13.43,3.48,14.59,10.55,27.08,21.78,37.1,10.37,9.27,22.56,15,35.98,18.28,9.34,2.29,18.82,3.07,28.42,2.98,9.01-.09,17.83-1.24,26.45-3.79,16.25-4.79,29.66-13.75,39.78-27.46,5.67-7.67,9.62-16.18,12.23-25.34,.08-.27,.15-.54,.23-.81V68.78c-25.04-.01-50.09-.01-75.14,0Zm52.24,170.58c-6.55,17.15-18.77,28.07-36.32,33.07-8.3,2.37-16.83,3-25.46,2.62-7.13-.32-14.15-1.23-21-3.27-9.79-2.93-18.55-7.63-25.66-15.12-7.14-7.53-11.23-16.54-12.96-26.7-.1-.6-.13-1.22-.12-1.83,.01-.54,.32-.95,.87-1.01,.73-.08,1.46-.08,2.2-.08h31.26c.61,0,1.22,.01,1.84,.03,.68,.04,1.12,.39,1.34,1.04,.04,.11,.08,.23,.12,.34,2.7,7.01,8.09,10.84,15.11,12.74,5.79,1.56,11.63,1.69,17.44,.27,7.27-1.77,12.44-6.08,15.26-13.1,1.14-2.87,2.01-5.83,2.11-8.9,.2-7.1,.22-14.2,.31-21.18-1.04-.54-1.31,.17-1.63,.59-8.97,11.6-21.08,16.74-35.46,17.07-12.6,.29-23.91-3.44-33.7-11.41-8.4-6.83-14.09-15.58-17.67-25.73-2.14-6.04-3.32-12.26-3.95-18.64-1.01-10.13-.19-20.07,2.49-29.86,2.84-10.35,7.8-19.52,15.59-27.04,8.12-7.84,17.76-12.41,28.93-13.96,8.56-1.19,16.88-.38,24.98,2.5,7.44,2.63,13.69,7.02,18.48,13.39,.36,.48,.76,.94,1.39,1.71,.68-1.46,.45-2.56,.46-3.63,.04-3.55-.01-7.1,.04-10.66,.01-1.59,.35-1.87,1.98-1.95,.6-.03,1.22,0,1.83,0,9.07,0,18.14,0,27.21,0,.49,0,.98-.01,1.48,0,2.32,.07,2.42,.16,2.48,2.55,0,.61,0,1.22,0,1.83,0,45.73-.01,91.45,.03,137.17,0,2.5-.42,4.83-1.3,7.15Z"/><path class="d" d="M197.84,152.16c.05,3.33-.12,6.37-.85,9.38-1.27,5.23-3.71,9.86-7.38,13.76-4.31,4.57-9.8,6.96-15.95,7.49-9.92,.88-17.98-2.8-24.01-10.73-3.2-4.2-4.86-9.08-5.48-14.25-.69-5.74-.52-11.49,1.35-17.07,2.45-7.3,6.94-12.86,13.92-16.29,12.46-6.15,29.33-1.72,35.83,13.62,1.93,4.57,2.75,9.38,2.57,14.09Z"/></g></g></g></svg>