<?xml version="1.0" encoding="UTF-8"?><svg xmlns="http://www.w3.org/2000/svg" viewBox="0 0 350 350"><defs><style>.d{fill:#fff;}</style></defs><g id="a"/><g id="b"><g id="c"><g><circle cx="175" cy="175" r="175"/><g><path class="d" d="M175,331c-86.02,0-156-69.98-156-156S88.98,19,175,19s156,69.98,156,156-69.98,156-156,156Zm0-299.99C95.6,31,31,95.6,31,175s64.6,144,144,144,144-64.6,144-144S254.4,31,175,31Z"/><path class="d" d="M190.42,146.18c-5.3-12.51-19.06-16.12-29.21-11.11-5.69,2.8-9.35,7.33-11.35,13.28-1.53,4.55-1.67,9.24-1.11,13.92,.51,4.21,1.87,8.19,4.47,11.62,4.92,6.47,11.49,9.47,19.58,8.75,5.02-.44,9.5-2.38,13.01-6.11,3-3.18,4.98-6.96,6.02-11.22,.59-2.45,.73-4.93,.7-7.64,.15-3.84-.52-7.76-2.1-11.49Zm-15.57,11.7c0,1.76-.19,3.33-.8,4.84-.64,1.58-1.85,2.35-3.48,2.36-1.52,.01-2.71-.75-3.31-2.16-1.41-3.26-1.46-6.58-.2-9.9,.61-1.61,1.88-2.26,3.51-2.31,1.7-.04,2.83,.83,3.48,2.35,.68,1.59,.86,3.27,.81,4.83Zm15.57-11.7c-5.3-12.51-19.06-16.12-29.21-11.11-5.69,2.8-9.35,7.33-11.35,13.28-1.53,4.55-1.67,9.24-1.11,13.92,.51,4.21,1.87,8.19,4.47,11.62,4.92,6.47,11.49,9.47,19.58,8.75,5.02-.44,9.5-2.38,13.01-6.11,3-3.18,4.98-6.96,6.02-11.22,.59-2.45,.73-4.93,.7-7.64,.15-3.84-.52-7.76-2.1-11.49Zm-15.57,11.7c0,1.76-.19,3.33-.8,4.84-.64,1.58-1.85,2.35-3.48,2.36-1.52,.01-2.71-.75-3.31-2.16-1.41-3.26-1.46-6.58-.2-9.9,.61-1.61,1.88-2.26,3.51-2.31,1.7-.04,2.83,.83,3.48,2.35,.68,1.59,.86,3.27,.81,4.83Zm15.57-11.7c-5.3-12.51-19.06-16.12-29.21-11.11-5.69,2.8-9.35,7.33-11.35,13.28-1.53,4.55-1.67,9.24-1.11,13.92,.51,4.21,1.87,8.19,4.47,11.62,4.92,6.47,11.49,9.47,19.58,8.75,5.02-.44,9.5-2.38,13.01-6.11,3-3.18,4.98-6.96,6.02-11.22,.59-2.45,.73-4.93,.7-7.64,.15-3.84-.52-7.76-2.1-11.49Zm-15.57,11.7c0,1.76-.19,3.33-.8,4.84-.64,1.58-1.85,2.35-3.48,2.36-1.52,.01-2.71-.75-3.31-2.16-1.41-3.26-1.46-6.58-.2-9.9,.61-1.61,1.88-2.26,3.51-2.31,1.7-.04,2.83,.83,3.48,2.35,.68,1.59,.86,3.27,.81,4.83Zm15.57-11.7c-5.3-12.51-19.06-16.12-29.21-11.11-5.69,2.8-9.35,7.33-11.35,13.28-1.53,4.55-1.67,9.24-1.11,13.92,.51,4.21,1.87,8.19,4.47,11.62,4.92,6.47,11.49,9.47,19.58,8.75,5.02-.44,9.5-2.38,13.01-6.11,3-3.18,4.98-6.96,6.02-11.22,.59-2.45,.73-4.93,.7-7.64,.15-3.84-.52-7.76-2.1-11.49Zm-15.57,11.7c0,1.76-.19,3.33-.8,4.84-.64,1.58-1.85,2.35-3.48,2.36-1.52,.01-2.71-.75-3.31-2.16-1.41-3.26-1.46-6.58-.2-9.9,.61-1.61,1.88-2.26,3.51-2.31,1.7-.04,2.83,.83,3.48,2.35,.68,1.59,.86,3.27,.81,4.83Zm15.57-11.7c-5.3-12.51-19.06-16.12-29.21-11.11-5.69,2.8-9.35,7.33-11.35,13.28-1.53,4.55-1.67,9.24-1.11,13.92,.51,4.21,1.87,8.19,4.47,11.62,4.92,6.47,11.49,9.47,19.58,8.75,5.02-.44,9.5-2.38,13.01-6.11,3-3.18,4.98-6.96,6.02-11.22,.59-2.45,.73-4.93,.7-7.64,.15-3.84-.52-7.76-2.1-11.49Zm-15.57,11.7c0,1.76-.19,3.33-.8,4.84-.64,1.58-1.85,2.35-3.48,2.36-1.52,.01-2.71-.75-3.31-2.16-1.41-3.26-1.46-6.58-.2-9.9,.61-1.61,1.88-2.26,3.51-2.31,1.7-.04,2.83,.83,3.48,2.35,.68,1.59,.86,3.27,.81,4.83Zm15.57-11.7c-5.3-12.51-19.06-16.12-29.21-11.11-5.69,2.8-9.35,7.33-11.35,13.28-1.53,4.55-1.67,9.24-1.11,13.92,.51,4.21,1.87,8.19,4.47,11.62,4.92,6.47,11.49,9.47,19.58,8.75,5.02-.44,9.5-2.38,13.01-6.11,3-3.18,4.98-6.96,6.02-11.22,.59-2.45,.73-4.93,.7-7.64,.15-3.84-.52-7.76-2.1-11.49Zm-15.57,11.7c0,1.76-.19,3.33-.8,4.84-.64,1.58-1.85,2.35-3.48,2.36-1.52,.01-2.71-.75-3.31-2.16-1.41-3.26-1.46-6.58-.2-9.9,.61-1.61,1.88-2.26,3.51-2.31,1.7-.04,2.83,.83,3.48,2.35,.68,1.59,.86,3.27,.81,4.83Zm2.62-68.21c-1.6,0-3.17-.14-4.75-.41-6.84-1.18-13.7-1.32-20.58-.27-15.52,2.38-28.13,9.81-37.92,22.02-7.15,8.92-11.39,19.17-13.57,30.33-1.17,6.01-1.44,12.08-1.38,18.19,.12,14.2,3.57,27.45,11.07,39.59,.3,.49,.95,.98,.66,1.56-.38,.77-1.24,.37-1.88,.38-2.1,.05-4.2,.01-6.3,.03-.58,0-1.21-.12-1.8,.42,.02,.3,.02,.68,.06,1.06,.52,4.86,.99,9.74,1.57,14.59,.44,3.67,.81,7.34,1.67,10.95,2.84,11.9,8.61,22.08,17.76,30.26,8.46,7.56,18.4,12.23,29.35,14.9,7.61,1.87,15.34,2.5,23.17,2.43,7.35-.07,14.54-1.01,21.57-3.09,13.25-3.91,24.19-11.22,32.44-22.39,4.62-6.26,7.85-13.2,9.97-20.66,.06-.22,.13-.44,.19-.66V89.68c-20.42,0-40.85,0-61.28,0Zm42.6,139.1c-5.34,13.98-15.3,22.89-29.61,26.96-6.77,1.93-13.73,2.45-20.77,2.14-5.82-.26-11.54-1-17.12-2.67-7.98-2.38-15.12-6.22-20.92-12.33-5.82-6.14-9.16-13.49-10.57-21.77-.08-.49-.11-.99-.1-1.49,0-.44,.26-.77,.71-.82,.59-.06,1.2-.06,1.8-.06,8.49,0,16.99,0,25.49,0,.5,0,1,0,1.5,.03,.56,.03,.92,.32,1.09,.84,.03,.09,.06,.19,.1,.28,2.2,5.72,6.59,8.83,12.32,10.38,4.72,1.28,9.48,1.38,14.23,.22,5.92-1.44,10.14-4.96,12.44-10.68,.94-2.34,1.64-4.75,1.72-7.26,.17-5.79,.18-11.58,.25-17.27-.85-.44-1.06,.14-1.33,.48-7.32,9.46-17.19,13.65-28.91,13.92-10.28,.24-19.5-2.8-27.49-9.31-6.85-5.56-11.49-12.7-14.41-20.98-1.74-4.93-2.71-10-3.22-15.2-.82-8.26-.15-16.36,2.03-24.34,2.31-8.44,6.36-15.92,12.72-22.05,6.62-6.39,14.48-10.12,23.59-11.38,6.98-.97,13.76-.31,20.37,2.04,6.07,2.15,11.17,5.73,15.07,10.92,.3,.39,.62,.77,1.14,1.4,.56-1.19,.37-2.09,.37-2.96,.03-2.9,0-5.79,.03-8.69,.01-1.3,.28-1.52,1.61-1.59,.49-.03,1,0,1.5,0,7.39,0,14.79,0,22.19,0,.4,0,.8,0,1.2,0,1.9,.06,1.97,.13,2.02,2.08,.01,.5,0,1,0,1.5,0,37.29,0,74.57,.03,111.85,0,2.04-.34,3.94-1.06,5.84Zm-29.65-82.6c-5.3-12.51-19.06-16.12-29.21-11.11-5.69,2.8-9.35,7.33-11.35,13.28-1.53,4.55-1.67,9.24-1.11,13.92,.51,4.21,1.87,8.19,4.47,11.62,4.92,6.47,11.49,9.47,19.58,8.75,5.02-.44,9.5-2.38,13.01-6.11,3-3.18,4.98-6.96,6.02-11.22,.59-2.45,.73-4.93,.7-7.64,.15-3.84-.52-7.76-2.1-11.49Zm-15.57,11.7c0,1.76-.19,3.33-.8,4.84-.64,1.58-1.85,2.35-3.48,2.36-1.52,.01-2.71-.75-3.31-2.16-1.41-3.26-1.46-6.58-.2-9.9,.61-1.61,1.88-2.26,3.51-2.31,1.7-.04,2.83,.83,3.48,2.35,.68,1.59,.86,3.27,.81,4.83Zm15.57-11.7c-5.3-12.51-19.06-16.12-29.21-11.11-5.69,2.8-9.35,7.33-11.35,13.28-1.53,4.55-1.67,9.24-1.11,13.92,.51,4.21,1.87,8.19,4.47,11.62,4.92,6.47,11.49,9.47,19.58,8.75,5.02-.44,9.5-2.38,13.01-6.11,3-3.18,4.98-6.96,6.02-11.22,.59-2.45,.73-4.93,.7-7.64,.15-3.84-.52-7.76-2.1-11.49Zm-15.57,11.7c0,1.76-.19,3.33-.8,4.84-.64,1.58-1.85,2.35-3.48,2.36-1.52,.01-2.71-.75-3.31-2.16-1.41-3.26-1.46-6.58-.2-9.9,.61-1.61,1.88-2.26,3.51-2.31,1.7-.04,2.83,.83,3.48,2.35,.68,1.59,.86,3.27,.81,4.83Zm15.57-11.7c-5.3-12.51-19.06-16.12-29.21-11.11-5.69,2.8-9.35,7.33-11.35,13.28-1.53,4.55-1.67,9.24-1.11,13.92,.51,4.21,1.87,8.19,4.47,11.62,4.92,6.47,11.49,9.47,19.58,8.75,5.02-.44,9.5-2.38,13.01-6.11,3-3.18,4.98-6.96,6.02-11.22,.59-2.45,.73-4.93,.7-7.64,.15-3.84-.52-7.76-2.1-11.49Zm-15.57,11.7c0,1.76-.19,3.33-.8,4.84-.64,1.58-1.85,2.35-3.48,2.36-1.52,.01-2.71-.75-3.31-2.16-1.41-3.26-1.46-6.58-.2-9.9,.61-1.61,1.88-2.26,3.51-2.31,1.7-.04,2.83,.83,3.48,2.35,.68,1.59,.86,3.27,.81,4.83Zm15.57-11.7c-5.3-12.51-19.06-16.12-29.21-11.11-5.69,2.8-9.35,7.33-11.35,13.28-1.53,4.55-1.67,9.24-1.11,13.92,.51,4.21,1.87,8.19,4.47,11.62,4.92,6.47,11.49,9.47,19.58,8.75,5.02-.44,9.5-2.38,13.01-6.11,3-3.18,4.98-6.96,6.02-11.22,.59-2.45,.73-4.93,.7-7.64,.15-3.84-.52-7.76-2.1-11.49Zm-15.57,11.7c0,1.76-.19,3.33-.8,4.84-.64,1.58-1.85,2.35-3.48,2.36-1.52,.01-2.71-.75-3.31-2.16-1.41-3.26-1.46-6.58-.2-9.9,.61-1.61,1.88-2.26,3.51-2.31,1.7-.04,2.83,.83,3.48,2.35,.68,1.59,.86,3.27,.81,4.83Zm15.57-11.7c-5.3-12.51-19.06-16.12-29.21-11.11-5.69,2.8-9.35,7.33-11.35,13.28-1.53,4.55-1.67,9.24-1.11,13.92,.51,4.21,1.87,8.19,4.47,11.62,4.92,6.47,11.49,9.47,19.58,8.75,5.02-.44,9.5-2.38,13.01-6.11,3-3.18,4.98-6.96,6.02-11.22,.59-2.45,.73-4.93,.7-7.64,.15-3.84-.52-7.76-2.1-11.49Zm-15.57,11.7c0,1.76-.19,3.33-.8,4.84-.64,1.58-1.85,2.35-3.48,2.36-1.52,.01-2.71-.75-3.31-2.16-1.41-3.26-1.46-6.58-.2-9.9,.61-1.61,1.88-2.26,3.51-2.31,1.7-.04,2.83,.83,3.48,2.35,.68,1.59,.86,3.27,.81,4.83Zm15.57-11.7c-5.3-12.51-19.06-16.12-29.21-11.11-5.69,2.8-9.35,7.33-11.35,13.28-1.53,4.55-1.67,9.24-1.11,13.92,.51,4.21,1.87,8.19,4.47,11.62,4.92,6.47,11.49,9.47,19.58,8.75,5.02-.44,9.5-2.38,13.01-6.11,3-3.18,4.98-6.96,6.02-11.22,.59-2.45,.73-4.93,.7-7.64,.15-3.84-.52-7.76-2.1-11.49Zm-15.57,11.7c0,1.76-.19,3.33-.8,4.84-.64,1.58-1.85,2.35-3.48,2.36-1.52,.01-2.71-.75-3.31-2.16-1.41-3.26-1.46-6.58-.2-9.9,.61-1.61,1.88-2.26,3.51-2.31,1.7-.04,2.83,.83,3.48,2.35,.68,1.59,.86,3.27,.81,4.83Zm15.57-11.7c-5.3-12.51-19.06-16.12-29.21-11.11-5.69,2.8-9.35,7.33-11.35,13.28-1.53,4.55-1.67,9.24-1.11,13.92,.51,4.21,1.87,8.19,4.47,11.62,4.92,6.47,11.49,9.47,19.58,8.75,5.02-.44,9.5-2.38,13.01-6.11,3-3.18,4.98-6.96,6.02-11.22,.59-2.45,.73-4.93,.7-7.64,.15-3.84-.52-7.76-2.1-11.49Zm-15.57,11.7c0,1.76-.19,3.33-.8,4.84-.64,1.58-1.85,2.35-3.48,2.36-1.52,.01-2.71-.75-3.31-2.16-1.41-3.26-1.46-6.58-.2-9.9,.61-1.61,1.88-2.26,3.51-2.31,1.7-.04,2.83,.83,3.48,2.35,.68,1.59,.86,3.27,.81,4.83Z"/></g></g></g></g></svg>