<?xml version="1.0" encoding="UTF-8"?><svg xmlns="http://www.w3.org/2000/svg" viewBox="0 0 350 350"><g id="a"/><g id="b"><g id="c"><g><path d="M197.45,137.77c1.94,4.6,2.77,9.44,2.59,14.19,.05,3.35-.12,6.41-.86,9.44-1.28,5.27-3.73,9.93-7.43,13.86-4.34,4.6-9.87,7-16.07,7.54-9.98,.88-18.1-2.82-24.17-10.81-3.22-4.22-4.9-9.14-5.52-14.34-.7-5.79-.53-11.58,1.36-17.2,2.47-7.35,6.99-12.95,14.02-16.41,12.54-6.19,29.53-1.72,36.08,13.73Z"/><path d="M175,0C78.35,0,0,78.35,0,175s78.35,175,175,175,175-78.35,175-175S271.65,0,175,0Zm59.07,239.78c-6.59,17.26-18.9,28.27-36.57,33.3-8.37,2.39-16.96,3.02-25.65,2.64-7.18-.32-14.25-1.24-21.15-3.3-9.85-2.94-18.68-7.68-25.84-15.23-7.19-7.58-11.31-16.65-13.05-26.88-.1-.61-.13-1.23-.12-1.85,0-.54,.32-.95,.87-1.01,.74-.08,1.48-.08,2.22-.08,10.49-.01,20.98-.01,31.48,0,.62,0,1.23,.01,1.85,.03,.69,.03,1.13,.39,1.35,1.04,.04,.12,.08,.23,.13,.35,2.71,7.06,8.14,10.91,15.21,12.82,5.83,1.58,11.71,1.71,17.57,.28,7.32-1.78,12.52-6.13,15.36-13.19,1.16-2.89,2.03-5.88,2.12-8.97,.21-7.14,.23-14.3,.32-21.33-1.05-.54-1.32,.18-1.64,.6-9.04,11.68-21.23,16.85-35.71,17.19-12.7,.29-24.08-3.46-33.94-11.5-8.46-6.87-14.19-15.69-17.8-25.91-2.15-6.08-3.34-12.35-3.98-18.77-1.01-10.2-.18-20.21,2.51-30.07,2.86-10.42,7.86-19.66,15.7-27.24,8.18-7.89,17.89-12.49,29.14-14.05,8.62-1.2,16.99-.39,25.15,2.51,7.5,2.66,13.8,7.08,18.61,13.49,.37,.48,.77,.94,1.41,1.72,.69-1.47,.45-2.57,.46-3.65,.04-3.58-.01-7.16,.04-10.74,.01-1.6,.35-1.88,1.99-1.96,.61-.03,1.23-.01,1.85-.01,9.13-.01,18.27-.01,27.4-.01,.5,0,.99,0,1.49,.01,2.34,.07,2.43,.17,2.5,2.57,.01,.62,0,1.24,0,1.85,0,46.05,0,92.1,.03,138.14,0,2.52-.42,4.87-1.31,7.21Z"/></g></g></g></svg>