<?xml version="1.0" encoding="UTF-8"?><svg xmlns="http://www.w3.org/2000/svg" viewBox="0 0 350 350"><defs><style>.d{fill:#fff;}</style></defs><g id="a"/><g id="b"><g id="c"><g><circle cx="175" cy="175" r="175"/><g><path class="d" d="M175,331c-86.02,0-156-69.98-156-156S88.98,19,175,19s156,69.98,156,156-69.98,156-156,156Zm0-299.99C95.6,31,31,95.6,31,175s64.6,144,144,144,144-64.6,144-144S254.4,31,175,31Z"/><g><path class="d" d="M177.47,89.68c-1.6,0-3.17-.14-4.76-.41-6.83-1.19-13.7-1.33-20.58-.27-15.52,2.38-28.12,9.81-37.92,22.02-7.14,8.91-11.39,19.16-13.57,30.32-1.17,6.02-1.43,12.09-1.38,18.19,.12,14.21,3.57,27.46,11.06,39.59,.31,.49,.95,.98,.66,1.56-.38,.77-1.24,.37-1.88,.38-2.1,.05-4.2,.02-6.3,.03-.58,0-1.21-.12-1.8,.42,.02,.31,.02,.69,.05,1.07,.52,4.86,.99,9.73,1.58,14.59,.44,3.67,.81,7.34,1.67,10.95,2.84,11.9,8.6,22.08,17.76,30.26,8.46,7.55,18.4,12.23,29.35,14.9,7.61,1.87,15.34,2.5,23.17,2.43,7.35-.07,14.54-1.01,21.57-3.09,13.25-3.91,24.18-11.21,32.44-22.39,4.62-6.26,7.84-13.19,9.97-20.66,.06-.22,.12-.44,.19-.67V89.68c-20.43-.01-40.85-.01-61.28,0Zm42.6,139.1c-5.34,13.98-15.3,22.89-29.61,26.96-6.77,1.93-13.73,2.45-20.77,2.14-5.82-.26-11.54-1-17.12-2.67-7.98-2.39-15.13-6.22-20.92-12.33-5.83-6.14-9.17-13.49-10.57-21.77-.08-.49-.11-.99-.1-1.49,.01-.44,.26-.78,.71-.83,.59-.06,1.19-.06,1.79-.06,8.49-.01,16.99-.01,25.49,0,.5,0,1,.01,1.5,.03,.56,.02,.92,.31,1.09,.84,.04,.09,.07,.19,.1,.28,2.21,5.72,6.6,8.83,12.32,10.38,4.73,1.28,9.49,1.38,14.23,.23,5.92-1.45,10.14-4.96,12.44-10.68,.93-2.34,1.64-4.76,1.72-7.26,.17-5.79,.18-11.58,.25-17.27-.85-.44-1.06,.14-1.33,.48-7.31,9.46-17.18,13.64-28.91,13.92-10.28,.24-19.5-2.81-27.48-9.31-6.85-5.57-11.49-12.7-14.41-20.98-1.74-4.93-2.71-10-3.22-15.2-.82-8.26-.15-16.37,2.03-24.35,2.31-8.44,6.36-15.92,12.71-22.05,6.62-6.39,14.48-10.12,23.59-11.38,6.98-.97,13.76-.31,20.37,2.03,6.07,2.15,11.17,5.73,15.07,10.92,.3,.39,.62,.77,1.14,1.4,.55-1.19,.36-2.09,.37-2.96,.03-2.89-.01-5.79,.03-8.69,.01-1.3,.29-1.53,1.61-1.59,.5-.03,1-.01,1.5-.01h22.19c.4,0,.8-.01,1.2,0,1.9,.06,1.97,.14,2.03,2.08,.01,.5,0,1,0,1.5,0,37.29-.01,74.57,.02,111.85,0,2.04-.34,3.94-1.06,5.84Z"/><path class="d" d="M192.52,157.67c.04,2.71-.1,5.19-.7,7.64-1.03,4.27-3.02,8.05-6.02,11.23-3.51,3.72-7.98,5.67-13,6.1-8.09,.72-14.66-2.28-19.58-8.75-2.6-3.42-3.96-7.4-4.47-11.61-.56-4.69-.42-9.38,1.11-13.93,1.99-5.95,5.66-10.48,11.35-13.28,10.15-5.01,23.91-1.4,29.21,11.11,1.57,3.72,2.24,7.64,2.1,11.49Z"/></g></g></g></g></g></svg>