<?xml version="1.0" encoding="UTF-8"?><svg xmlns="http://www.w3.org/2000/svg" viewBox="0 0 350 350"><g id="a"/><g id="b"><g id="c"><g><path d="M174.04,153.05c.67,1.59,.86,3.27,.81,4.83,0,1.76-.19,3.33-.81,4.84-.64,1.58-1.84,2.35-3.48,2.37-1.52,0-2.7-.76-3.31-2.17-1.41-3.25-1.46-6.57-.2-9.9,.61-1.61,1.88-2.26,3.51-2.31,1.7-.05,2.83,.82,3.48,2.34Z"/><path d="M221.11,111.09c0-.5,.01-1,0-1.5-.06-1.94-.13-2.02-2.03-2.08-.4-.01-.8,0-1.2,0h-22.19c-.5,0-1-.02-1.5,.01-1.32,.06-1.6,.29-1.61,1.59-.04,2.9,0,5.8-.03,8.69-.01,.87,.18,1.77-.37,2.96-.52-.63-.84-1.01-1.14-1.4-3.9-5.19-9-8.77-15.07-10.92-6.61-2.34-13.39-3-20.37-2.03-9.11,1.26-16.97,4.99-23.59,11.38-6.35,6.13-10.4,13.61-12.71,22.05-2.18,7.98-2.85,16.09-2.03,24.35,.51,5.2,1.48,10.27,3.22,15.2,2.92,8.28,7.56,15.41,14.41,20.98,7.98,6.5,17.2,9.55,27.48,9.31,11.73-.28,21.6-4.46,28.91-13.92,.27-.34,.48-.92,1.33-.48-.07,5.69-.08,11.48-.25,17.27-.08,2.5-.79,4.92-1.72,7.26-2.3,5.72-6.52,9.23-12.44,10.68-4.74,1.15-9.5,1.05-14.23-.23-5.72-1.55-10.11-4.66-12.32-10.38-.03-.09-.06-.19-.1-.28-.17-.53-.53-.82-1.09-.84-.5-.02-1-.03-1.5-.03-8.5-.01-17-.01-25.49,0-.6,0-1.2,0-1.79,.06-.45,.05-.7,.39-.71,.83-.01,.5,.02,1,.1,1.49,1.4,8.28,4.74,15.63,10.57,21.77,5.79,6.11,12.94,9.94,20.92,12.33,5.58,1.67,11.3,2.41,17.12,2.67,7.04,.31,14-.21,20.77-2.14,14.31-4.07,24.27-12.98,29.61-26.96,.72-1.9,1.06-3.8,1.06-5.84-.03-37.28-.02-74.56-.02-111.85Zm-28.59,46.58c.04,2.71-.1,5.19-.7,7.64-1.03,4.27-3.02,8.05-6.02,11.23-3.51,3.72-7.98,5.67-13,6.1-8.09,.72-14.66-2.28-19.58-8.75-2.6-3.42-3.96-7.4-4.47-11.61-.56-4.69-.42-9.38,1.11-13.93,1.99-5.95,5.66-10.48,11.35-13.28,10.15-5.01,23.91-1.4,29.21,11.11,1.57,3.72,2.24,7.64,2.1,11.49Z"/><path d="M175,0C78.35,0,0,78.35,0,175s78.35,175,175,175,175-78.35,175-175S271.65,0,175,0Zm0,331c-86.02,0-156-69.98-156-156S88.98,19,175,19s156,69.98,156,156-69.98,156-156,156Zm0-300C95.6,31,31,95.6,31,175s64.6,144,144,144,144-64.6,144-144S254.4,31,175,31Zm63.75,197.9c-.07,.23-.13,.45-.19,.67-2.13,7.47-5.35,14.4-9.97,20.66-8.26,11.18-19.19,18.48-32.44,22.39-7.03,2.08-14.22,3.02-21.57,3.09-7.83,.07-15.56-.56-23.17-2.43-10.95-2.67-20.89-7.35-29.35-14.9-9.16-8.18-14.92-18.36-17.76-30.26-.86-3.61-1.23-7.28-1.67-10.95-.59-4.86-1.06-9.73-1.58-14.59-.03-.38-.03-.76-.05-1.07,.59-.54,1.22-.41,1.8-.42,2.1-.01,4.2,.02,6.3-.03,.64-.01,1.5,.39,1.88-.38,.29-.58-.35-1.07-.66-1.56-7.49-12.13-10.94-25.38-11.06-39.59-.05-6.1,.21-12.17,1.38-18.19,2.18-11.16,6.43-21.41,13.57-30.32,9.8-12.21,22.4-19.64,37.92-22.02,6.88-1.06,13.75-.92,20.58,.27,1.59,.27,3.16,.41,4.76,.41,20.43-.01,40.85-.01,61.28,0V228.9Z"/></g></g></g></svg>