<?xml version="1.0" encoding="UTF-8"?><svg xmlns="http://www.w3.org/2000/svg" viewBox="0 0 350 350"><g id="a"/><g id="b"><g id="c"><g><path d="M182.96,129.22c1.07,2.51,1.36,5.17,1.28,7.64,.01,2.78-.3,5.26-1.27,7.65-1.01,2.5-2.92,3.71-5.5,3.74-2.41,.02-4.28-1.19-5.24-3.42-2.23-5.15-2.31-10.4-.32-15.66,.96-2.54,2.97-3.58,5.55-3.66,2.69-.07,4.48,1.31,5.5,3.71Z"/><path d="M257.4,62.86c0-.79,.02-1.58,0-2.37-.08-3.08-.2-3.2-3.2-3.29-.64-.02-1.27-.01-1.9-.01-11.7,0-23.4,0-35.09,.01-.79,0-1.59-.03-2.37,.01-2.1,.1-2.53,.46-2.55,2.51-.06,4.59,0,9.17-.05,13.75-.01,1.38,.29,2.8-.59,4.68-.82-1-1.33-1.59-1.8-2.21-6.17-8.21-14.23-13.87-23.83-17.27-10.45-3.71-21.17-4.75-32.21-3.22-14.41,2-26.84,7.9-37.31,18-10.05,9.7-16.45,21.53-20.11,34.88-3.45,12.62-4.51,25.44-3.21,38.5,.81,8.23,2.34,16.25,5.09,24.04,4.62,13.09,11.96,24.38,22.79,33.18,12.63,10.29,27.21,15.1,43.47,14.72,18.54-.43,34.15-7.05,45.72-22.01,.42-.54,.76-1.46,2.1-.76-.11,9-.13,18.16-.4,27.31-.12,3.96-1.24,7.78-2.72,11.48-3.63,9.05-10.3,14.61-19.67,16.89-7.5,1.83-15.03,1.67-22.5-.35-9.05-2.45-16-7.38-19.48-16.42-.06-.15-.11-.3-.16-.45-.28-.83-.85-1.29-1.73-1.33-.79-.03-1.58-.04-2.37-.04-13.44-.01-26.88-.01-40.31,0-.95,0-1.9,0-2.84,.1-.71,.08-1.11,.61-1.12,1.3-.01,.79,.03,1.59,.16,2.36,2.22,13.1,7.5,24.72,16.71,34.43,9.17,9.66,20.47,15.73,33.09,19.5,8.83,2.64,17.88,3.81,27.08,4.22,11.13,.49,22.13-.32,32.84-3.38,22.63-6.44,38.39-20.53,46.83-42.64,1.14-3,1.68-6,1.68-9.23-.05-58.96-.04-117.92-.04-176.89Zm-46.31,85.75c-1.64,6.75-4.78,12.72-9.52,17.75-5.55,5.89-12.63,8.97-20.57,9.66-12.79,1.13-23.18-3.61-30.96-13.84-4.12-5.41-6.27-11.71-7.07-18.37-.89-7.41-.67-14.83,1.75-22.02,3.16-9.42,8.95-16.58,17.95-21.01,16.06-7.93,37.82-2.21,46.2,17.57,2.49,5.89,3.55,12.09,3.32,18.17,.06,4.29-.16,8.21-1.1,12.09Z"/><path d="M0,0V350H350V0H0ZM285.3,249.18c-.1,.35-.2,.7-.3,1.05-3.36,11.81-8.46,22.78-15.77,32.68-13.05,17.67-30.34,29.23-51.3,35.41-11.12,3.28-22.49,4.77-34.11,4.88-12.39,.12-24.61-.89-36.65-3.84-17.31-4.23-33.03-11.62-46.41-23.57-14.48-12.93-23.6-29.03-28.09-47.85-1.36-5.71-1.94-11.52-2.64-17.32-.93-7.68-1.67-15.39-2.49-23.08-.06-.6-.06-1.2-.09-1.68,.94-.86,1.93-.66,2.85-.67,3.32-.02,6.64,.04,9.96-.04,1.02-.02,2.38,.61,2.98-.6,.46-.92-.56-1.7-1.04-2.47-11.86-19.19-17.31-40.15-17.5-62.61-.08-9.66,.34-19.26,2.19-28.77,3.44-17.65,10.16-33.86,21.46-47.96,15.49-19.31,35.42-31.06,59.97-34.82,10.88-1.67,21.74-1.45,32.55,.42,2.51,.43,4.99,.65,7.52,.65,32.31-.01,64.61-.01,96.91,0V249.18Z"/></g></g></g></svg>