<?xml version="1.0" encoding="UTF-8"?><svg xmlns="http://www.w3.org/2000/svg" viewBox="0 0 350 350"><defs><style>.d{fill:#fff;}</style></defs><g id="a"/><g id="b"><g id="c"><g><rect width="350" height="350"/><g><path class="d" d="M208.87,118.35c-8.38-19.78-30.14-25.5-46.2-17.57-9,4.43-14.79,11.59-17.95,21.01-2.42,7.19-2.64,14.61-1.75,22.02,.8,6.66,2.95,12.96,7.07,18.37,7.78,10.23,18.17,14.97,30.96,13.84,7.94-.69,15.02-3.77,20.57-9.66,4.74-5.03,7.88-11,9.52-17.75,.94-3.88,1.16-7.8,1.1-12.09,.23-6.08-.83-12.28-3.32-18.17Zm-24.63,18.51c.01,2.78-.3,5.26-1.27,7.65-1.01,2.5-2.92,3.71-5.5,3.74-2.41,.02-4.28-1.19-5.24-3.42-2.23-5.15-2.31-10.4-.32-15.66,.96-2.54,2.97-3.58,5.55-3.66,2.69-.07,4.48,1.31,5.5,3.71,1.07,2.51,1.36,5.17,1.28,7.64Z"/><path class="d" d="M188.39,28.99c-2.53,0-5.01-.22-7.52-.65-10.81-1.87-21.67-2.09-32.55-.42-24.55,3.76-44.48,15.51-59.97,34.82-11.3,14.1-18.02,30.31-21.46,47.96-1.85,9.51-2.27,19.11-2.19,28.77,.19,22.46,5.64,43.42,17.5,62.61,.48,.77,1.5,1.55,1.04,2.47-.6,1.21-1.96,.58-2.98,.6-3.32,.08-6.64,.02-9.96,.04-.92,.01-1.91-.19-2.85,.67,.03,.48,.03,1.08,.09,1.68,.82,7.69,1.56,15.4,2.49,23.08,.7,5.8,1.28,11.61,2.64,17.32,4.49,18.82,13.61,34.92,28.09,47.85,13.38,11.95,29.1,19.34,46.41,23.57,12.04,2.95,24.26,3.96,36.65,3.84,11.62-.11,22.99-1.6,34.11-4.88,20.96-6.18,38.25-17.74,51.3-35.41,7.31-9.9,12.41-20.87,15.77-32.68,.1-.35,.2-.7,.3-1.05V28.99c-32.3-.01-64.6-.01-96.91,0Zm67.37,219.99c-8.44,22.11-24.2,36.2-46.83,42.64-10.71,3.06-21.71,3.87-32.84,3.38-9.2-.41-18.25-1.58-27.08-4.22-12.62-3.77-23.92-9.84-33.09-19.5-9.21-9.71-14.49-21.33-16.71-34.43-.13-.77-.17-1.57-.16-2.36,.01-.69,.41-1.22,1.12-1.3,.94-.1,1.89-.1,2.84-.1,13.43-.01,26.87-.01,40.31,0,.79,0,1.58,0,2.37,.04,.88,.04,1.45,.5,1.73,1.33,.05,.15,.1,.3,.16,.45,3.48,9.04,10.43,13.97,19.48,16.42,7.47,2.02,15,2.18,22.5,.35,9.37-2.28,16.04-7.84,19.67-16.89,1.48-3.7,2.6-7.52,2.72-11.48,.27-9.15,.29-18.31,.4-27.31-1.34-.7-1.68,.22-2.1,.76-11.57,14.96-27.18,21.58-45.72,22.01-16.26,.38-30.84-4.43-43.47-14.72-10.83-8.8-18.17-20.09-22.79-33.18-2.75-7.79-4.28-15.81-5.09-24.04-1.3-13.06-.24-25.88,3.21-38.5,3.66-13.35,10.06-25.18,20.11-34.88,10.47-10.1,22.9-16,37.31-18,11.04-1.53,21.76-.49,32.21,3.22,9.6,3.4,17.66,9.06,23.83,17.27,.47,.62,.98,1.21,1.8,2.21,.88-1.88,.58-3.3,.59-4.68,.05-4.58-.01-9.16,.05-13.75,.02-2.05,.45-2.41,2.55-2.51,.78-.04,1.58-.01,2.37-.01,11.69-.01,23.39-.01,35.09-.01,.63,0,1.26-.01,1.9,.01,3,.09,3.12,.21,3.2,3.29,.02,.79,0,1.58,0,2.37,0,58.97-.01,117.93,.04,176.89,0,3.23-.54,6.23-1.68,9.23Z"/></g></g></g></g></svg>