<?xml version="1.0" encoding="UTF-8"?><svg xmlns="http://www.w3.org/2000/svg" viewBox="0 0 350 350"><defs><style>.d{fill:#fff;}</style></defs><g id="a"/><g id="b"><g id="c"><g><circle cx="175" cy="175" r="175"/><path class="d" d="M235.35,94.43c0-.62,.02-1.23,0-1.85-.06-2.41-.16-2.5-2.5-2.57-.5-.02-.99,0-1.48,0-9.14,0-18.27,0-27.4,0-.62,0-1.24-.02-1.85,0-1.64,.08-1.98,.36-1.99,1.96-.05,3.58,0,7.16-.04,10.74,0,1.08,.23,2.19-.46,3.65-.64-.78-1.04-1.24-1.41-1.73-4.82-6.41-11.11-10.83-18.61-13.49-8.16-2.9-16.53-3.71-25.15-2.51-11.25,1.56-20.96,6.17-29.14,14.06-7.85,7.58-12.85,16.81-15.7,27.24-2.69,9.86-3.52,19.87-2.51,30.07,.63,6.43,1.83,12.69,3.97,18.77,3.61,10.22,9.34,19.04,17.8,25.91,9.86,8.04,21.25,11.79,33.95,11.5,14.48-.34,26.67-5.51,35.7-17.19,.33-.42,.59-1.14,1.64-.59-.09,7.03-.1,14.18-.31,21.33-.09,3.09-.97,6.08-2.12,8.97-2.83,7.07-8.04,11.41-15.36,13.19-5.86,1.43-11.74,1.3-17.57-.27-7.07-1.91-12.49-5.76-15.21-12.82-.05-.12-.09-.23-.13-.35-.22-.65-.66-1.01-1.35-1.04-.62-.02-1.23-.03-1.85-.03-10.5,0-20.99,0-31.48,0-.74,0-1.48,0-2.22,.08-.55,.06-.87,.48-.87,1.02,0,.62,.02,1.24,.12,1.84,1.73,10.23,5.86,19.3,13.05,26.89,7.16,7.54,15.99,12.28,25.84,15.23,6.9,2.06,13.96,2.98,21.15,3.3,8.69,.38,17.28-.25,25.65-2.64,17.67-5.03,29.98-16.03,36.57-33.3,.89-2.34,1.31-4.69,1.31-7.21-.04-46.04-.03-92.09-.03-138.14Zm-36.16,66.96c-1.28,5.27-3.73,9.93-7.43,13.86-4.33,4.6-9.86,7.01-16.06,7.54-9.99,.88-18.1-2.82-24.18-10.81-3.22-4.22-4.9-9.14-5.52-14.35-.69-5.79-.52-11.58,1.37-17.2,2.47-7.36,6.99-12.95,14.02-16.41,12.54-6.19,29.53-1.73,36.08,13.72,1.94,4.6,2.77,9.44,2.59,14.19,.05,3.35-.12,6.41-.86,9.44Z"/></g></g></g></svg>