<?xml version="1.0" encoding="UTF-8"?><svg xmlns="http://www.w3.org/2000/svg" viewBox="0 0 200 198.95"><g id="a"/><g id="b"><g id="c"><g id="d"><path d="M199.96,97.22c1.39,51.48-36.13,94.48-85.29,101.71-1.2,.18-2.27-.77-2.27-1.99V127.07h24.5l3.69-28.42h-28.19v-18.22c0-8.24,2.28-13.82,14.06-13.82h15.07v-25.43c-2.59-.4-11.54-1.1-21.9-1.1-21.75,0-36.59,13.19-36.59,37.52v20.97h-24.57v28.5h24.57v69.09c0,1.25-1.14,2.21-2.36,1.97C34.7,189.13,0,148.62,0,100,0,45.06,44.3,.48,99.12,0c54.25-.47,99.37,42.99,100.84,97.22Z"/></g></g></g></svg>